<?xml version="1.0" encoding="UTF-8"?><svg id="a" xmlns="http://www.w3.org/2000/svg" viewBox="0 0 1024 1024"><defs><style>.b{fill:#0023e2;}.c{fill:#0025e4;}.d{fill:#0036f0;}.e{fill:#015ff7;}.f{fill:#019cfa;}.g{fill:#0030eb;}.h{fill:#0049eb;}.i{fill:#0194fa;}.j{fill:#0057f1;}.k{fill:#0168f7;}.l{fill:#011a69;}.m{fill:#0188f9;}.n{fill:#004df3;}.o{fill:#011168;}.p{fill:#0028e9;}.q{fill:#08b8fb;}.r{fill:#0049f3;}.s{fill:#0167f7;}.t{fill:#002bed;}.u{fill:#0a8df6;}.v{fill:#0272f6;}.w{fill:#003bf2;}.x{fill:#0da0f7;}.y{fill:#0a2ee5;}.z{fill:#0154f6;}.aa{fill:#01b4fa;}.ab{fill:#002be8;}.ac{fill:#0f216d;}.ad{fill:#0759f8;}.ae{fill:#0d80f2;}.af{fill:#0163f7;}.ag{fill:#003af1;}.ah{fill:#0052f2;}.ai{fill:#0072f7;}.aj{fill:#0056f3;}.ak{fill:#0864f9;}.al{fill:#004af4;}.am{fill:#0757ef;}.an{fill:#0c52f5;}.ao{fill:#0c60f2;}.ap{fill:#092068;}.aq{fill:#081d62;}.ar{fill:#062ef1;}.as{fill:#001b6b;}.at{fill:#004fef;}.au{fill:#006ef7;}.av{fill:#085ded;}.aw{fill:#077cf9;}.ax{fill:#0147f4;}.ay{fill:#0727de;}.az{fill:#0035f1;}.ba{fill:#0093f9;}.bb{fill:#0774f7;}.bc{fill:#0762f7;}.bd{fill:#018ef9;}.be{fill:#021f72;}.bf{fill:#006af7;}.bg{fill:#063def;}.bh{fill:#031b63;}.bi{fill:#0b55f4;}.bj{fill:#004af5;}.bk{fill:#0626e3;}.bl{fill:#0058f3;}.bm{fill:#015bf6;}.bn{fill:#0177f8;}.bo{fill:#002dec;}.bp{fill:#0032ef;}.bq{fill:#021f73;}.br{fill:#0087f9;}.bs{fill:#00affa;}.bt{fill:#003af2;}.bu{fill:#05acf4;}.bv{fill:#0023e3;}.bw{fill:#0042f3;}.bx{fill:#051d66;}.by{fill:#0031f0;}.bz{fill:#0163f5;}.ca{fill:#061e67;}.cb{fill:#0998f7;}.cc{fill:#01b1fb;}.cd{fill:#001b6c;}.ce{fill:#0a2067;}.cf{fill:#0027e5;}.cg{fill:#094ee9;}.ch{fill:#016cf7;}.ci{fill:#0183fa;}.cj{fill:#0362f6;}.ck{fill:#003ef2;}.cl{fill:#0029e8;}.cm{fill:#071f6e;}.cn{fill:#008bf9;}.co{fill:#0044f4;}.cp{fill:#061d64;}.cq{fill:#009afa;}.cr{fill:#0048f5;}.cs{fill:#0022e1;}.ct{fill:#0182f9;}.cu{fill:#0626e4;}.cv{fill:#0175f8;}.cw{fill:#0a5df1;}.cx{fill:#0a1f66;}.cy{fill:#014ff5;}.cz{fill:#00b2fa;}.da{fill:#032cf5;}.db{fill:#0179f8;}.dc{fill:#0427de;}.dd{fill:#041f71;}.de{fill:#08acf4;}.df{fill:#07acf7;}.dg{fill:#fefefe;}.dh{fill:#0098fa;}.di{fill:#0041f2;}.dj{fill:#005df4;}.dk{fill:#005df3;}.dl{fill:#051d68;}.dm{fill:#003ff4;}.dn{fill:#0035ee;}.do{fill:#0c9cf7;}.dp{fill:#0061f6;}.dq{fill:#0170f7;}.dr{fill:#0860ef;}.ds{fill:#0066f7;}</style></defs><rect class="dg" width="1024" height="1024"/><path class="as" d="M495.67,516.08c25.61.61,51.37.75,77.29.42.54,0,8.76,4.67,9.28,5.17,1.39,1.33,3.11,4.2,1.62,5.84-11.3,16.38-23.86,31.59-35.93,47.36-6.79,6.01-12.7,12.95-17.75,20.83-2.09,1.1-2.7,2.59-1.85,4.48-.13.17.13.65,0,.82-3.12,1.26-6.21,3.59-6.79,6.97l-6.18,6.44c1.1.06,1.21,1.01.72,2.11-.32.4-1.02.88-1.63,1.63-2.96.99-6.24,4.32-5.72,7.35-.34.41-.47,1.25-.82,1.63-5.51,3.22-10.92,6.72-16.23,10.51l-.1,1.74c-39.96,28.11-80.23,55.77-120.04,84.11-4.46,2.44-8.69-2.55-5.72-6.53,32.04-45.26,65.26-90.04,97.99-134.74,1.85-.6,2.93-2.24,3.27-4.9-.05-.19-.04-.62,0-.82,2.91-.91,4.27-2.54,4.08-4.9,2.3-3.36,4.96-7.07,7.03-10.53.57-.95,1.73-1.12.33-2.14-6.76-.77-13.64-.34-20.43-.39-.56-2.39-.71-3.91.44-6.05-1.11-5.13-.23-8.05,2.64-8.77l1.49-2.3c4.23-1.73,8.52-3.55,12.86-5.46,2.63,1.78,5.74,1.72,4.68-2.09-5.5-10.27-3.75-16.97,8.93-17.79,2.08-.54,4.45-.51,6.53,0Z"/><path class="as" d="M639.39,247.43l.15,2.05c-4.89,4.45-1.19,9.85,3.98,5l1.59,1.11c3.33.27,2.1,2.6.06,4.25.66,3.43,4.88,3.21,6.9.89l2.02-.24c.55.56,1.08,1.05,1.63,1.63l-.08,1.84c-7.5,3.37-3.61,10.29,1.44,4.26l1.9.43,1.12.54c.57,4.91,1.49,9.55,2.75,13.91-1.78,3.95-3.62,7.85-5.5,11.68-9.55,15.36-22.18,27.86-33.48,41.65-2.43-.18-2.32-1.59-1.04-3.36-3.5-3.83-5.32-8.09-5.46-12.75-2.04.74-4.16,1.23-6.37,1.46-3.41,6.99-6.66,9.72-14.13,6.76-.76,0-1.94,1.7-1.89,2.13,3.11,3.57,2.14,7.86-3.1,7.06,1.78,4.59,4.19,5.94,8.82,4.65,6.82,1.6,4.55,10.25-2.39,9.59-.4,2.05-5.52,9.2-7.01,9.93-4.66,2.3-15.19-1.5-12.39-8.42-3.32-1.21-5.81-.72-7.45,1.46-2.55-1.65-3.63-.68-3.24,2.89,2.08-.93,5.09,8.13,4.82,9.13-1.27,4.85-11.53,4.09-11.56-1.23,3.37,7.08-4.21,8.43-5.32,1.1-.47-.03-4.9,2.5-4.39,3.82,4,3.06,15.33,19.25,8.6,22.65-10.09-3.2-11.19,1.52-8.43,10.66.19,4.29-2.62,6.73-8.44,7.32-.76,2.83-.84,5.87-.24,9.1-5.23,4.6-10.42,6.29-15.58,5.07l-.38,2.03c2.34,5.31,3,10.2-4.45,7.01-4.66,8.1-4.36,8.73,3.38,14.02l-.34,2.24-3.41,3.43c1.74.84,1.51,2.96-.67,6.37-2.7,3.27-5.47,6.52-8.17,9.8-1.17.64-2.03.19-2.59-1.35l-3.94,5.43.29,1.11c-3.37,2.46-5.37,5.63-6,9.5l-1.85.43c-1.81-3.78-3.1-3.11-3.87,2.02.46,3.33-5.55,11.17-8.98,10.62-3.94.52-11.56-4.25-11.68-8.95.66-1.12,1.75-4.84-.67-3.59-.05,4.24-3.35,4.44-6.06,1.85-8.39,4.72-15.86-4.55-8.16-11.72-6.52-2.77-7.81-12.79.86-8.81,1-2.31,2.71-3.9,5.3-4.11,2.88-.06,8.05-.23,7.98-3.69l2.3-2.79c-4.38-7.07,6.17-11.83,7.74-4.55l7.86-1.95c-1.33-7.54-.72-11.54,3.61-17.57-4.29-6.45-4.08-10.42.62-11.92-1.31-2.37-1.18-4.45-.8-7.02-3.1-4.57-.81-5.94,3.63-7.13.71-5.82,1.52-9.92,8.41-7.61l.16-1.85c-5.61-.55-3.9-4.68.71-5.6-1.32-4.56-.43-8.9,2.69-13.01.33-.4.73-1.36,1.63-2.45,2.26-2.14,4.19-2.55,5.79-1.24,3.5-5.44,8.07-8.37,13.71-8.79-.58-3.3-.83-6.5-.75-9.6,6.2-2.73,12.35-3.04,18.86-1.47,5.4,3.45,9.12,4.2,9.22-3.53l1.75-2.02c-4.58-1.24-10.95-6.15-3.26-7.65l.25-6.71c2.93-11.27,3.15-13.59.66-6.96l-6.19,5.82c-.81,4.52-4.69,3.89-4.92-.32l74.29-88.62c7.67-5.84,11.22-1.77,17.17,2.88Z"/><path class="b" d="M102.07,617.34h146.99c.27.03.55-.04.82,0l3.65.3c1.77,2.84.29,3.29-4.47,1.33-14.47,2.9-30.1,2.54-44.96,2.09-1.68-.05-3.34-.68-4.99-1.47-32.99-.55-65.6-.48-97.85.2,32.9-.79,65.83-.79,98.81,0,.71.23.7.5,0,.82l-.71,1.63c-3.74-.64-7.32-1.18-10.72-1.63,1.75.79,4.2.94,7.35.46,6.01,2.61,13.46,3.92,20.28,3.48,2.18-1.96,4.63-1.35,7.36,1.84,4.23.25,4.82,3.92,1.15,5.82l-.36,10.12c4.14,3.57,2.37,8.01-1.44,11.45,1.69,3.45,4.55,6.09,8.6,7.92,2.45,1.91,3.41,4.75,2.89,8.55,3.32,1.43,4.38,2.85,3.17,4.26-2.68.9-5.41,1.33-8.2,1.21h31.47c1.68-.12,1.94.42,1.23,2.06-22.91,2.21-46.36.04-69.41.82,2.45,4.17,5.21,8.42,8.17,12.24,2.24,3.83-4.25,4.49-7.35,4.31-2.68,2.31-3.34,4.4-1.99,6.27,6.52-4.31,11.56,3.39,3.68,5.96-.35,2.94-2.28,3.99-5.03,4.06,1.65,1.76,2.83,3.79,3.53,6.09,5.86.65,3.71,4.47,1.35,7.9,2.82,2.89,1.84,5.07-.77,7.43,1.58,2.05,2.72,4.37,3.41,6.97,3.34,5.9,5.11,10.29-2.56,13.14,2.71,4.55,3.02,9.71-3.47,9.47-.33,2.4-1.05,6.13-3.86,4.34-2.75.66-8.09-5.48-7.35-8.17-.7-1.55-2.06-2.64-4.08-3.27-5.09-.72-10.12-7.46-12.82-11.92l-1.07-.28c-8.28-9.94-16.21-20.15-23.36-30.88-1.56-2.34-3.97-6.32-4.76-8.66-.99-1.27-2.23-2.26-3.72-2.98-15.04-24.95-26.54-51.17-33.42-79.67.11-1.99,2.86-3.97,4.84-3.62Z"/><path class="cd" d="M511.18,378.08c1.63,1.89-1.11,2.36-1.43,3.78-.07.31-.26,5.69-.25,6.4.02,1.07,1.27,4.14.86,4.52-.21.19-4.21-.18-4.9,2.05l4.08.41c.43,8.26-4.11,3.3-6.53,4.45-2.59,1.23-.92,6.03-2.85,7.81-1.09,1.01-4.24.76-4.51,2.04-.2.94,1.35,2.38,1.51,3.45.23,1.61-.43,2.97-.3,3.91.15,1.09,2.12,4.46,1.26,5.28-.78.74-6.19-1.63-3.07,5.12.9,1.94,2.5,1.98,2.33,5.08s-3.3,4.61-3.98,6.74c-.73,2.3.76,10.98.29,11.66-.92,1.33-8.94,2.11-11.09,3.24v-4.08c-9.17-.61-4.08,5.12-4.43,6.59-.29,1.23-1.9,2.19-2.48,3.28-.53.98-.24,2.77-.55,3.09-.26.28-4.49.5-4.79.93-.38.55,2.32,3.62.81,4.89-.74.62-2.41-.6-2.41-1.98,0-.85,1.35-1.89.37-2.11-6.61-1.47-6.34,3.77-7.37,4.09-1.39.42-4.74-3.24-5.28-.38-.78,4.1,6.5,6.71,6.51,7.32-3.17,1.63-5.96,6.07-3.69,9.42,1.07,1.58,8.72,4.21,8.19-.85,1.61,1.49,2.75,3.72,5.31,3.27-1.37-4.61,4.43-5.36,4.74-1.09.16,2.27-2.83,2.74.99,6.4,2.22,2.13,5.91,2.88,8.16,5.31l.02,2.42-7.68,10.21c-2.16,1.42-2.59,2.92-1.32,4.52l.55-1.04c1.5.59,3.22.93,5.17,1.04,1.93.37,3.83.65,5.72.82-4.38,2.83-11.47,2.76-10.29,9.82.54,3.2,7.5,12.3-.87,12.91-1.22.09-1.76-1.65-3.54-1.19-1.16.3-4.91,3.12-6.8,3.99-1.11.51-2.48-.02-3.02.26-1.07.57-1.4,2.25-2.5,3.17-.61.51-2.09.31-2.29.52-.25.26.61,5.42.33,7.23-.42,2.75-2.96,2.49,1.22,4.55l-3.26,1.22c-1.63-.01-3.27,0-4.9,0-3.95-.29-7.76-.56-11.43-.82-1.18-.25-2.26-.53-3.27-.82-9.85-.27-19.65-.54-29.4-.82l-1.88.02c-2.7-2.19-5.62-4.1-8.74-5.74-6.43-11.16-5.82-18.38-1.44-30.43,20.75-32.07,46.57-61.22,70.87-90.82,14.14-17.23,29.09-33.99,43.26-51.06Z"/><path class="aa" d="M975,458.92c5.55,1.55,5.94,4.51,3.61,9.73-29.52,36.54-58.68,73.42-87.71,110.31-2.45,1.19-4.08,3.1-4.9,5.72-.33.8-.4.92-.82,1.63-.75.87-1.77.97-3.05.29-1.5,4.93-3.5,5.68-8.24,6.02.36,2.22.58,4.47.68,6.75-.27.27-.54.55-.82.82-1.25,1.39-2.07,2.48-2.45,3.27-.28.26-.53.56-.82.82-1.05,1.15-1.6,1.97-1.63,2.45-.57.76-.8,1.53-1.63,2.45-.36-.22-1.61.42-1.63,1.63-.27.28-.54.55-.82.82-1.28,1.4-2.09,2.49-2.45,3.27-.23.3-.59.52-.82.82-6.86,6.79-9.9-.09-10.77-7-5.75-8.32-2.47-11.75,6.29-14.78-3.73-.64-6.32-3.33-3.28-6.55-.92-3.18-1.52-6.53-1.79-10.05,2.97-2.27,7.16-2.56,12.59-.88,1.38-2.68,3.86-4.31,7.46-4.91l2.28-7.58c-2.87-3.85-2.81-4.91,1.22-7.57-5.7-.82-7.06-5.15-1.04-6.8.67-.56-3.06-2.64-4.15-2.27-4.82,14.89-22.78-.16-5.63-3.44l-1.69-4.45c4.38-3.91,7.15-7.88,8.32-11.91,6.6-8.64,13.26-17.29,19.6-26.13-.75-.08-.71-.37,0-.82-3.69-1.57-5.54-3.71-1.83-7.36,3.91-3.14,4.63-5.86,5.14-10.61,2.32-.94,3.45-2.08,3.37-3.44,5.08-5.58,4.66-6.84.46-13.58-1.19-2.29.51-3.96,5.12-5.02,23.03-.21,45.62-.48,67.78-.82.74-.9,2.1-1.17,4.08-.82Z"/><path class="dk" d="M312.75,350.32c4.33.1,8.61.45,12.86,1.06l2.02,2.61c3.13,12.52,14,17.98,26.23,17.54-.8-7.57,12.05-2.88,12.94,2.47,6.17-3.28,14.09.71,10.45,7.35,1.25.17,2.43.94,3.55,2.29l9.74,6.1c4.06,3.26,1.37,8.81-1.59,11.72,1.61,1.11,2.07,2.84,1.37,5.2-5.1,13.54-12.79,19.05-22.05,29.4-3.33,3.6-6.91,2.75-3.32-1.89-3.15-2.84-2.81-16.22,2.6-11.08-.19,3.54,5.41,5.16,3.16.72,1.55-4.46.24-9.58-4.01-4.36l-2.82.22c-1.53,3.14-4.35,3.16-8.46.07-1.64,2.26-3.78,2.66-6.42,2.58.18,4.65-2.79,3.7-6.12,2.54-6.96,1.51-11.37.06-13.24-4.36-2.87,1.27-5.96.17-7.31-2.74l-2.57.78c-3.91-1.98-5.52.04-3.84,4.14-1.35,3.23-13.24,1.37-13.73-2.35,2.94-3.27,2.65-5.92-.87-7.95l.82-2.45-6.53-.82-.89-1.4c-7.06.49-13.51-.3-19.32-2.38l-.2-1.12c-3.15-1.24-1.47-4.27.48-6.14,3.69-2.34,4.85-4.05,5.59-8.37-.27-7.11.44-13.89,2.14-20.33-4.72-2.34-1.85-5.59,2.28-6.29,2.04-1.17-3.5-6.65-4.96-7.05l-1.36-2.48c-3.78.74-4.92-2.8-.83-2.85,6.59.29,13.1.16,19.52-.37,4.88-.14,9.81.07,14.7,0Z"/><path class="bv" d="M171.48,315.2c.52-.76,1.23-1.25,1.9-.57,6.19-7.93,7.98,2.79,3.81,7.6l4.78.81c2.71,4.86,3.29,5.76,7.95,2.15,4,1.21,6.57.96,7.7-.74-5.43,4.05-9.33-6.43-8.28-9.13s23.37-7.02,18.78,2.99l7.21-.81c6.21-1.39,8.07,8.93,3.2,11.31-5.73-.27-9.17-.27-5.16,6.14,12.25-3.1,9.49,9.88-.81,9.79-3.04,1.04,2.54,4.75,4.17.4l2.75-.58c1.15-3.57,5.99-7.78,6.7-2.4-1.61,2.12-3.42,4.36-4.9,6.53l-.03,2.97c-10.08,15.42-19.24,31.7-25.42,49.1l-2.31,1.83c2.04,1.12,1.32,2.37-.82,2.45-21.48-.48-43.02-.74-64.51-.82,8.42-31.77,24.53-62.13,43.28-89Z"/><path class="bl" d="M301.32,412.38c1.93-.67,4.36.95,4.76,3.08.45,2.39-2.61,3.55-2.31,5.9l10.2,1.65c1.79.09-2.05-4.96-1.22-5.72,1.89.76,3.72-1.36,4.66-1.5,1.05-.15,1.77,1.27,2.29,1.3.72.04,1.7-1.95,2.45-2.25,1.64-.67,1.18,1.85,1.97,2.88,3.07,3.98,6.73-.41,7.4.38-.91,10.12,9.66,2.1,15.09,6.53l.87-.82c-.69-4.68,1.98-2.56,4.7-3.44,1.18-.38,1.8-1.9,2.79-2.18,2.41-.67,4.31,2.97,6.31,2.32.91-.3.99-1.98,1.45-2.25.87-.5,2.35.03,3.38-.31,1.58-.52.6-3.33,4.02-2.16,5.02,1.72,1.99,5.92,2.22,8.4.14,1.5,1.95,2.06,1.64,3.69-3.35.52-8.21.08-7.74-4.09-2.75-2.49-1.39,6.55-1.08,7.61.34,1.19,2.27,2.29,2.28,2.61.01.56-3.08,2.01-2.43,3.68l3.26-1.63c-10.39,11.62-21.58,22.63-31.85,34.3l-1.37.5c-4.43,6.59-8.18,4.68-3.16-1.95,1.84-4.07-8.05-.18-9.78.53-.92.11-1.74-.17-2.43-.81-1.64-5.94-5.79-4.33-10.28-2.24-6.28,4.78-12.78,7.53-19.52,8.27-4.46,7.89-7.73,8.25-10.7-.08-4.02.07-6.61-.85-7.78-2.75-2.82,1.88-5.05,1.06-5.53-2.34-5.85,4.21-12.2,6.6-19.15,8.7-4.75,3.47-7.99-1.06-2.57-3.75.31-.51.49-1.14.82-1.63.3-.43.66-.77,1.12-1.01,2.68-1.38,17.16-16.04,19.91-20.26.49-.75.79-1.54,1.01-2.41,4.92-5.36,9.66-10.98,14.7-16.33,3.61-.74,6.91-4.71,8.17-8.17.18-.19.29-1.57,1.17-2.47,1.71-1.76,8.8-9.27,10.27-9.78Z"/><path class="c" d="M268.66,224.56c2.45.85,1.51,2.5-2.82,4.94l7.4-.9c1.18-6.62,5.24-7.59,11.22-6.42,7.91-4.32,17.79,2.93,19.13,11.04,4.45-.36,6.92,2.48,6.04,6.85,1.55-.1,3,.21,4.34.93,2.55,3.82,5.44,7.21,8.66,10.19,4.05-2.01,5.61,9.75,5.24,10.35-2.61.87-4.66,2.15-6.12,3.86-7.68,3.58-15.79,8.1-23.12,12.41-6.58,3.87-16.29,12.11-22.61,14.54-4.04,3.29-6.65,1.42-3.52-3.25-1.96-2.7-1.36-5.58,1.78-8.65.92-2.17-6.57.11-6.49,2.75-2.04.74-7.71.69-8.84-1.55l-2.28-.05c-.64,6.43-5.33,5.98-7.38.23-2.37.69-4.77-.52-7.21-3.63-5.57,1.48-10.07-.58-6.63-6.51l-1.97-1.89c-4.09-.73-7.05-3.83-8.9-9.31-1.03-.92-.75-2.56.82-4.9,14.41-12.37,27.06-21.39,43.28-31.03Z"/><path class="cs" d="M224.56,260.49c3.97.21,4.18,6.06,5.71,6.95,1.4.82,2.98-.09,4.94,1.59,4.46,3.84,0,5.06-.02,5.75,0,.18,2.13,2.35,2.45,2.51,1.59.79,2.04-1.42,4.06-.97,2.83.62,4.93,4.83,6.12,4.58,3.24-2.07-1.31-4.07,0-6.52,4.19,2.85,1.34,7.99,5.72,10.6,1.96-.87.91-4.56,1.22-4.89.18-.19,4.4-.16,5.16.02.61.14.49,1.45,1.12,1.6,1.79.41,4.07-.49,5.96.84-1.31-3,5.93-5.23,7.34-4.54,4.4,2.15-1.25,5.41-1.52,7.58-.23,1.87,1.57,2.64,1.41,3.73-.13.9-2.13,2.15-1.49,3.83.63-.37,2.94-.69,3.26-.81-3.5,4.26-9,7.13-13.07,10.62-3.49.72-5.61,2.21-6.53,5.72-.29.26-.54.56-.82.82-3.44,1.09-8.07,5.69-10.58,8.43-2.1,2.29-5.14,5.73-5.75,8.72-4.22,4.72-9.26,10.51-13.07,15.52-3.97-3.07-4.14,2.82-5.94,3.86-.77.45-2.05.08-3.01.67-.65.4-.61,1.8-1.42,2.02-4.67,1.28-7.86-3.55-4.3-5.3,2.51-1.24,6.56.05,7.79-3.65,2.11-6.37-3.8-2.63-6.42-3.29-2.09-.52-4.33-7.05-1.22-8.83,3.59-2.05,10.23,4,7.08-8.25-4.73-.76-8.54.31-12.97,1.54-.94-.95,3.08-5.13,0-6.95-2.22-1.32-15.53,1.01-15.51,2.46,3.06,2.14-.2,7.05,4.44,6.99,2.36-.03,5.91-2.74,4.36,1.84-1.45,4.3-7.12,1.16-9.14,1.57-1.23.25-1.67,2.49-4.11,2.29-3.77-.3-4.16-4.35-4.67-4.8-.33-.3-6.44.2-6.41-2.17,0-.24,1.82-1.42,2.25-2.64,1.95-5.62.53-9.67-3.49-2.67l-2.04-1.63c6.45-9.24,13.09-17.61,20.41-26.13l1.78-.28c8.94-9.38,18.18-18.52,27.72-27.42l3.16-.88Z"/><path class="cz" d="M871.3,527.52c4.68,3.6-4.99,8.06-7.29,11.01,1,1.47,2.82,4.53,2.03,6.13-.96,1.94-6.31.52-7.79,4.5,8.99,8.43,8.49-1.87,11.43-3.31,1.77-.87,7.85,1.82,6.18,4.54-.92,1.49-4.01.76-3.73,2.84,1.1,2.32,7.43-.37,4.48,4.5-.49.81-2.66,1.29-2.86,2.06-.34,1.31,2.01,2.17,2.33,3.42.12.47-2.42,8.67-2.74,9.23-.93,1.61-4.27,1.25-5.76,2.41-.88.69-1.18,2.41-1.99,2.92-2.94,1.85-13.97-4.38-12.06,2.23.66,2.3,2.07,2.83.63,6.33h3.27c.54,2.93-4.31.93-3.26,4.49.45,1.53,5.53,1.22,6.51,3.27,0,.7-11.36,3.43-11.4,7.32-.02,1.7,2.38,4.97,3.01,6.8,1.05,3.03,1.19,11.86,6.38,7.51.74,3,1.12.84,2.84,0-8.98,11.88-18.67,26.94-28.61,37.95-2.91,3.22-4.36,4.18-8.14,6.15-3.01.75-5.28.22-6.79-1.57-3.46.24-8.26-.37-6.99-4.99,1.38-5,15.09-4.13,17.54.41l1.98-1.47c-2.71-.82-5.19-2.29-7.44-4.42-9.47-.33-12.84-13.91-3.01-16.69l-.91-3.84c-8.64-4.26-6.77-9.65.71-13.65v-.92c-5.31,4.71-10.7-5.58-4.75-7.42-.4-2.01.33-3.41,1.69-4.8l-1.02-1.07c.76-2.71,2.89-5.06,4.58-7.26,16.67-21.75,34.32-42.81,50.95-64.59Z"/><path class="ah" d="M242.53,480.15l.66-.88c4.43.89,8.92,1.47,13.48,1.72,3.66-3.87,6.63-2.49,8.91,4.14,2.86-1.59,6.16-3.12,7.6.9,7.77.05,13.34,2.47,16.72,7.26,3.59-3.37,10.05-3.21,14.2-.89,2.59-4.18,7.4-2.8,10.53-.07,1.7-1.61,3.87-2.52,6.5-2.73,4.28-3.62,9.02-2.79,14.2,2.51,1.49-5.19,3.49-7,6.01-5.42,1.78,1.75,3.16,2.95,4.9,4.9.36,1.3.42,2.86.16,4.7l6.37,3.46c.8,1.11,1.68,2.09,2.45,3.27l.27,1.87c-2.98,2.13-3,5.16-2.91,8.48-1.7,4.45-10.78-2.5-12.52-4.87-13.95.51-27.86,2.71-41.73,6.59l-10.45.13c-2.53.07-8.3.8-3.18,1.59,2.07,4.76-.51,5.87-4.61,3.36-4.42-1.28-8.53-3.78-13.26-5.11-16.87-4.77-35.53-.76-52.92-2.6-7.08-2.32,3.16-10.65,5.76-13.51l1.88-.14c6.49-6.38,12.86-12.88,19.09-19.49l1.9.85Z"/><path class="cq" d="M689.2,697.37l39.4-1.2c.71-.01,3.25,2.53,2.24,3.65-10.64,18.49-24.83,36.52-39.2,52.26-1.23,1.17-1.7,1.25-1.42.25l-12.47,12.76c-2.81,1.77-4.72,3.97-5.7,6.59-6.63,6.12-12.68,10.8-19.6,16.33-3.8,1.65-5.73-1.74-2.8-5-1.56-3.73-.65-7.52,2.72-11.37-2.12-4.23-1.08-8.59,3.13-13.07l1-2.48c-3.02-6.04-2.37-9.7,1.93-10.98,1.56-3.89,3.42-7.67,5.57-11.36.95-4.55,1.53-6.64,6.8-4.87.47-2.43,1.69-4.59,3.65-6.49-.69-5.47.78-8.83,4.42-10.08l-.62-1.39c-3.72-.75-13.87-9.49-6.2-10.3l.67-.82c6.14.56,10.81.29,14.02-.81-3.61,1.54-11.66,1.26-15.52,0l-.97-.63c6.27-.34,12.58-.67,18.93-1.01Z"/><path class="ba" d="M798.62,459.74l2.45.82c7.35,3.1,10.15,8.98,3.21,14.65,2.69,6.38,2.12,10.64-1.72,12.79-2.29,3.55-2.33,4.38.11,7.71-1.32,4.6-1.1,8.47.66,11.62,3.44,1.25,4.53,2.98,3.27,5.2,5.18-1.69,8.59,3.96,3.81,6.75-4.31.4-3.97,4.02,1.02,10.85l-.57,2.28c-10.95,13.98-21.54,28.81-32.69,42.85-2.77,3.49-5.64,7.22-8.96,10.23-3.67.46-1.55-3.32.13-4.99-8.23-4.08-7.22-6.98-3.87-14.19l2.73-2.15c-1.39-5.49,0-9.75,4.77-12.99-2.92-2.93-4.01-9.4-1.16-12.54-1.38-1.71-.96-3.73-.33-5.66-3.4-1.84-14.61-8.42-8.8-12.94,3.32-.49,4.76-2.07,2.9-5.07.13-1.39,6.63-10.37,7.67-10.79,1.48-.59.97,1.35.74.19-.19-.93.13-1.69.93-2.18-.71-.23-.7-.5,0-.82-1.69-.38-2.05-.88-1.09-1.49-7.34-5.07,4.12-8.22,8.58-6.44.26-7.28,1.09-15.17,3.5-22l5.56-9.21c-5.52,4.39-9.5,4.31-11.95-.25l-6.58.29c-2.42.3-2.52-2.91-1.53-2.94,9.05-.26,18.15-.11,27.18.38Z"/><path class="bd" d="M774.94,502.2c.48.83-1.12,1.77,1.64,1.23-.07,1.26-1.85,4.89-3.28,3.12-.24-.29.56-1.38-.8-1.08l-5.72,7.76c-.56,1.63,1.57,1.08,1.56,1.55-.05,1.69-1.41,3.66.07,6.19-.81.67-6-1.8-5.67,2.89.19,2.67,3.1,2.68,4.61,3.89.62.5.85,1.87,1.87,2.6,1.45,1.03,3.95,1.08,4.09,1.24.47.51-1.16,3.57-.72,5.13.51,1.8,4.54,3.02,4.8,4.26.66,3.11-2.84,1.23-3.68-1.24-3-.74-1.58,6.78-1.03,8.38.47,1.36,3.03,2.72,2.26,3.85-.33.48-3.81,1.84-5.07,5.14-1.41,3.7.39,6.05.05,7.46-.24,1.01-2.35,1.46-3.07,2.59-.82,1.29-.5,2.73-.96,3.79-.4.94-2.79.54-1.15,3.89.88,1.78,5.72,5.22,7.74,3.27.74.73-3.05,4.57-3.6,5.73-.36.76.38,1.55.34,1.62-.47.87-1.15,1.6-1.63,2.45-2.56,2.25-5.12,4.28-7.68,6.09-2.59-.73-3.92.02-4.01,2.23,1.08,2.24-.58,8.18-.79,4.59-.04-.63,1.49.03,1.87.97-8.21,10.76-16.48,21.59-25.31,31.85-1.96.32-2.5-1.43-1.6-5.27-4.84-8.27-1.78-22.1,3.12-29.98-.21-4.56.36-7.79,4.36-10.35.99-1.49-1.36-5.7-2.48-7.04-3.87,3.48-8.22,4.48-10.62-1.1-8.82,1.79-5-10.03.6-11.4.01-1.4.31-2.82.9-4.28,16.16-20.6,32.07-41.42,48.18-62.06.26-.54.54-.53.82,0Z"/><path class="l" d="M623.87,336.43c-1.1,1.35-2.17,2.74-3.27,4.08-1.31.42-2.1,1.04-3.1,2.37l-.98-.73q-1.18-2.54,0,0l.82.78c-1.12,1.53-2.18,3.01-2.46,4.93-.24.29-.57.52-.82.82-1.52.41-2.83,1.2-3.91,2.38l-1.8-.74c-.76,1-1.45,1.99-1.63,3.27,1.57,2.08-3.87,8.17-6.53,7.35l-1.63.78c-2.91-1.61-4.1,2.87-1.64,4.11,1.64-.08,1.64.46,0,1.63.43.18.43.72,0,1.63-1.96,2.39-3.77,4.99-5.72,7.35-2.68,1.58-4.04,3.21-4.08,4.9-11.67,14.18-23.43,28.3-35.11,42.46-1.53.74-2.89,1.82-4.08,3.27-1.48,3.2-5.55,7.48-8.17,9.8.08,1.34-1.2,1.98-3.85,1.9,2.06.52,2.74,1.07,1.4,3-1.12,1.36-2.16,2.75-3.27,4.08-1.68.39-2.13.69-2.45,2.45-1.48,1.79-2.82,4.18-4.08,5.72-2.52,1.55-4.05-1.98-1.63-3.27-2.41-3.99-8.45-4.61-7.95-9.27.07-.62,3.47-8.09,3.86-8.33,2.02-1.28,5.36,2.66,5.73.03.19-1.32-3.27-5.17-1.24-8.57,1.65-2.76,4.09-.14,5.8.02,4.17.39,6.01-4.95,10.13-4.92-1.1-2.66-1.8-7.21.18-9.6.98-1.18,7.1-.87,7.86-4.01,1.07-4.41-6.06-14.02,4.82-15.63,1.8-.27,5.47,2.85,5.79.3.04-.28-.58-5.03-.71-5.58-.16-.66-5.86-9.4-6.97-11.13-.88-1.38-4.91-2.18-2.05-6.06.16-.21,4.27-2.74,4.54-2.76,3.86-.34.95,5.93,5.32,4.68.7-.67-2.73-5.11-.31-5.75,4.5-1.19,1.63,3.14,4.1,4.02s8.27.23,6.42-3.15c-1.23-2.25-1.28-.53-1.61-4-.43-4.56-3.31,1.49-5.33.32,3.63-1.9,1.52-5.74,3.22-8.23,1.56-2.3,3.05.51,3.73.45s.9-2.34,1.77-2.5c2.05-.39,4.96,2.07,7.61-.75,1.63,2.22-5.06,10.35,7.92,10.3,4.59-.02,2.82-1.59,4.31-3.35,1.01-1.19,2.32-2.04,3.2-3.38.67-1.03.77-3.24,1.03-3.45.6-.5,5.25.16,5.64-1.47,1.88-7.89-4.41-3.82-6.8-4.47s-6.85-5.79-5.48-8.87c.69-.73,4.88,2.67,4.73-1.39-.08-2.13-2.62-1.84-1.69-4.06,2.85-6.84,6.85-.47,10.82-2.31,2.86-1.33,4.69-6.53,5.74-7.33,1.33-1,4.43-.64,5.88-1.26,1.09-.47,1.29-2.37,1.86-2.41,1.53-.1,1.19,5.73,1.61,7.36.63,2.47,5.13,8.08,5.23,8.67.18,1.01-1.93,2.14-.72,3.55Z"/><path class="cl" d="M332.35,195.98c3.31-.04,6.27,1.23,8.87,3.83,8.07-1.29,20.63,2.09,10.51,10.39.44,4.3-.83,7.69-2.97,11.29.62,7.2.91,13.28-5.91,17.42,2.19-1.13,4.18-1.28,5.97-.44,7.35-6.04,12.25,3.47,2.48,5.8l-.56,1.99c2.26,1.66,4.58,3.41,6.94,5.26-11.84,3.57-24.72,8.66-35.93,13.88l-1.22-1.63,6.12-2.47c-1.34-1.31-1.41-7.79-1.71-8.08-.14-.13-2.33-.05-3.65-.83-3.23-1.89-7.04-9.58-8.54-10.25s-4.71-.25-4.89-.42c-.66-.63,3.49-8.61-6.53-6.54,3.08-5.3-6.92-12.66-11.26-12.89-2.09-.11-3.36,1.33-5.48,1.52-2.9.26-6.09-1.83-8.12.81-.95,1.24-1.27,4.59-2.31,5.44-.53.43-9.2,1.34-9.58,1.04-.1-.08-.61-2.09-.45-2.47.78-1.77,5.29-1.84,4.53-4.06,2-1.19,3.8-2.19,5.72-3.27,1.35-.14,5.6-1.56,4.08-2.45,18.61-10.02,33.84-16.3,53.89-22.86Z"/><path class="co" d="M484.24,182.1c-.93.85,1.57.42,2.45,0,14.6,2.16,29.42,4.61,43.28,9.8,1.2,1.99,2.11,4.24,2.74,6.76,5.19,7.87,6.08,16.21,2.36,24.88-4.62,1.77-6.75,5.14-9.12,9.22,1.78,4.97,2.56,9.88,2.34,14.74-3.12-.3-4.58,1.41-4.38,5.14,2.46.72,2.97,3.49.34,2.95-11.41-4.13-28.98-9.25-40.83-11.43-.86-1.55,3.21-.84,2.97-.79-5.41,1.06-3.37-3.06,1.38-2.92l2.26-5.23c-2.68-3.18-1.69-5.35,2.98-6.5l.32-.88c-5.22-2.17-9.62-6.23-7.65-12.22l-2.08-3.59c-.13-6.89.55-13.62,2.04-20.18-6.62.28-9.5-1.63-8.65-5.74-9.47-3.59-2-5.5,3.98-4.83,1.02.14,2.69-.5,3.27.82Z"/><path class="ai" d="M687.57,460.56c4.41,3.14,9.03,7.4,11.15,12.43,4.44,2.45,9,4.68,13.69,6.7,4.81,3.29,5.44,5.3,6.72,11.08,2.07.74,2.98,1.83,2.74,3.27-8.77,11.19-23.47,33.36-33.48,41.65-.53,1.03-1.34,1.84-2.45,2.45-.06.28-.15.53-.32.69-4.18,3.63-9.91,10.57-11.93,15.65-.86,1.08-1.61,2.21-2.45,3.27-3.15,1.72-5.56,4.31-7.24,7.79-1.56,2.27-2.68,2.67-3.38,1.19-3.89-.48-7.07-10.09-.2-8.94l1.41-.51c-.22-7.25.38-8.34,8.28-7.61l.11-4.04c3.57-1.6,4.93-3.56,4.09-5.88-4.33-4.85-8.14-11.55,1.8-10.34,3.12,1.95,2.85.54-.81-4.23,2.52-5.72,1.95-9.46-1.7-11.24l-2.25-4.09c-7.64-2.72-9.7-5.22-6.19-7.51,4.02,1.48,2.77-2.35,1.21-4.66-6.64-2.18-5.24-8.23-3.21-13.53,3.45-3.26,5.05-6.85,4.81-10.79,4.04-.31.34-3.41-2.36-4.21l-2.03-2.1c-6.43-1.22-8.78-3.38-7.04-6.47,10.31-.67,20.71-.69,31.03,0Z"/><path class="t" d="M272.74,612.44c1.26-.86,1.97.31,2.14,3.52l2.39-.7c7.98-5.46,12.27-4.76,12.86,2.09,3.83-.97,7.5.4,11.01,4.12,4.29-3.25,5.66-2.9,9.65.83l2.42-1.27c8.84.2,17.8.18,26.61-1.83,3.8-.8,8.17,4.73,6.41,7.95.88,1.71-.99,2.87-2.45,3.27,1.56-.09,1.13.84,0,1.63l-.12,1.6c-3.48,2.71-6.7,5.5-8.05,9.83-.28.27-.54.55-.82.82-6.31,4.06-13.98,9.16-19.97,13.95-.43.34-.48.95-.45,1.56-5.89,3.55-10.56,6.28-17.15,8.98-4.34.99-3.24-2.55-1.9-5.53-4.29-.57-8.77-2.01-7.09-7.19l-5.11-1.87c-4.24.86-7.24-1.9-9-8.28-8.57,1.91-8.99-6.59-7.97-12.83-3.84-2.19-3.75-3.93-2.56-7.96-.74-4.5-1.97-8.11-5.25-2.81-3.41,3.33-8.44,2.84-8.49-2.54-1.04.12-1.41.13-.82-.82,1.36-.04,2.73.04,4.08,0v-.8c-1.3.52-2.65-.74-3.26-.82,7.23-.09,16.27-2,22.86-4.9Z"/><path class="bj" d="M541.4,195.16c20.58,6.51,39.85,15.97,58.79,26.15.5.7-3.34,5.16-4.1,6.09-3.31,4.07-7.24,7.84-10.6,11.86-5.5,3.75-11.58,11.68-14.7,17.96-1.98,2.31-10.67,13.82-12.63,13.87s-16.66-8.34-20.03-9.78c-1.86-1.46-3.98-2.72-6.36-3.78.16-2.57,3.35-1.74,5.03-1.04.81-2.03,2.35-2.91,4.34-3.48-3.28-6.51-2.98-10.67.88-12.5-1.1-3.65-1.1-7.05,0-10.21,5.97-2.77,4.94-10.53.13-13.55l-.25-9.45c-2.56-1.31-3.86-3.86-3.89-7.66-3.29-4.24-.88-4.89,3.38-4.48Z"/><path class="ds" d="M627.14,534.86c7.01-4.68,6.68,3.99-.25,4.62,2.33,2.36.97,5.37-.93,7.58,3.34-.13,5.65-.07,5.26,4.07,2.58,4.26,2.91,8.22.99,11.89,2.33,10.56,1.36,23.38-2.71,33.3l.23,2.91c1.31,3.58,1.76,6.2.66,9.93-8.41,10.67-16.73,21.89-25.31,32.66-6.74,6.61-8.16-.63-6.88-7.11l3.29-5.25c-5.75-5.63-3.47-11.42-.82-17.82-5.51.52-7.36-2.73-4.83-7.51l-1.23-1.54c3.98-12.56,2.73-14.22-3.76-4.97-5.77,4.99-13.89,3.08-8.32-4.64l.51-1.79c14.7-18.78,29.3-37.64,44.1-56.34Z"/><path class="g" d="M241.71,732.48c9.14,7.54,20.23,15.68,30.21,22.05,2.07,5.97-3.92,13.67-8.14,17.43,2.24,6,2.78,11.7,1.63,17.1-3.93,2.14-3.13,3.08,2.38,2.83l.67,1.06c-1.72,4.8-1.29,11.31-.55,16.68,1.71,4.49,4.14,11.4-1.22,14.06-2.48-1.49-4.82-2.22-7.03-2.19-11.75-6.33-22.48-12.85-33.48-20.41-2.02-1.84-2.24-3.17-.64-3.97-.13-3.72,1.81-7.01,5.82-9.86-.23-4.29.93-6.96,3.47-8.02l.31-6.07c-2.23-4.59-1.65-17.9,4.87-16.37-.21-6.4-.55-9.38-4.5-14.67-.92-4.12,1.23-12.69,6.18-9.63Z"/><path class="au" d="M655.72,460.56c.17-.56.45-.53.82,0,.26,4.02,6.3,4.05,7.95,5.13,1.75,1.14.97,3.6,5.93,1.41-2.79,7.28,2.76,1.55,3.27,4.5.39,2.28-3.14,3.19-4.89,2.04,3.11,5.07-3.52,8.82-4.91,12.71-.26.73-.86,6.66-.72,7.15.44,1.47,3.15,1.76,4.37,3.04,1.67,1.76,3.01,6.31.49,7.75-1.1.63-3.93-1.99-3.32,1.19,1.81-.28,6.56,2.1,7.8,3.23,1.1.99,1.32,2.86,2.35,4.2.69.89,2.3,1.19,2.69,1.78,2.67,4.06-1.02,8.62-.66,10.68.07.37,4.32,2.43,2.52,6.24,1.36.4,3.81-.87,4.03-2.15.34-2.06-5.5-3.65-1.97-6.02,1.65,1.25,9.97,3.1,10.07,4.48-1.07,1.19-1.17,3.51-1.94,4.56-.68.94-2.24-.26-3.3.65-1.25,1.08-1.07,3.25-1.2,3.37-.53.48-5.68-1.5-6.44-2.09-1.2-.92-1.43-2.96-3.07-3.48-1.25-.39-3.9-.31-4.33,1.1-.47,1.53,4.12,5.16,4.73,7.56,1.45,5.78-3.32,5.25-4.37,6.67-.23.31.73,4.07-.48,4.85-1.35.86-7.4-1.12-7.96,1.39-.16.71.79,2.17.77,3.24-.07,3.94-3.4,3.88-6.57,3.64l3.26,7.35c.14,1.14.14,2.5,0,4.08-3.34,4.24-6.44,8.79-9.8,13.07-1.02,1.57-4.95.12-5.55-1.39-.71-1.79,1.89-3.97,3.39-4.85-3.74-8.04-4.42-10.87-.24-19.22-11.25-5.18-3.97-16.18,3.61-20.86l1.13-9.63c-7.13-4.18-8.72-7.59-4.76-10.24.07-.75-1.69-5.83-3.29-5.67,1.94-2.38,4.2-6.52,6.53-8.17l.66-1.03c-1.54-.71-5.03-4.09-5.17-6.43-.27-4.49,3.6-16.37,5.61-20.75l-1.94-6.43c-4.97-4.69-3.9-7.3,2.46-8.64.82-.6,1.66-.59,2.45,0Z"/><path class="dn" d="M271.92,754.53c4.42,2.82,9.32,5.61,13.88,8.17-.2,3.16,5.86,4.8,8.98,4.9,1.11.57,2.14,1.08,3.27,1.63l-.82,2.46c1.77,3.63,2.2,6.95,1.29,9.96,3.17,2.54,1.74,4.35-.43,6.83,1.19,4.44,1.45,9.08.79,13.91,2.27,1.25,2.82,1.83,3.25,4.4.37,2.21-.72,8.79-4.18,7.54,1.08,3.81.36,6.21-2.18,7.21-.21,2.77-.48,4.87-3.44,5.89,3.26,5.37.09,8.77-5.72,7.12-9.28-4.09-17.91-8.19-26.95-13.07,1.54-4.02,6.87,3.34,8.03-.54,1.83-6.11-.76-7.1-1.45-11.35-.37-2.3-.69-11.55-.5-13.87.08-.96,1.78-1.44,1.26-2.82-.4-.37-4.92,2.02-5.58-1.34-.48-2.43,2.8-3.34,2.99-3.68.15-.26.2-5.48.15-5.94-.22-2.35-3.61-8.75-2.07-11.08.43-.66,1.9-.9,2.42-1.7,1.24-1.93,4.96-7.97,5.78-9.79,1.1-2.45-1.62-3.65,1.22-4.85Z"/><path class="bo" d="M376.45,184.55c.98-.32,1.8-.32,2.45,0,.02,1.91-1.64,3.35-4.95,4.31,3.92,5.74,4.81,11.57.04,16.91l7.7,8.51c-.57,5.96.55,10.4,3.35,13.31,4.79.83,6.83,4.18,6.12,10.05,3.08.14,7.28,1.78,3.4,4.32-.74.48-6.06-.05-5.84-.25.19-.18,5.23.12,4.08,1.62-11.63,2.85-23.64,4.71-35.11,8.17l-8.16.81c-.71-2.73,3.6-.5,4.89-1.64-.35-1.47-2.59-.89-4.06-2.06-1.73-1.37-1.64-4.31,0-5.67.94-.78,8.48-2.28,3.24-4.96-2.21-1.13-3.27,2.77-4.47,2.72-.48-.02-1.36-1.44-2.46-1.46-.93-.01-4.5,3.42-5.31.41-.71-2.65,2.55-3.12,3.61-4.54,4.72-6.28,1.27-9.45,2.23-14.04.33-1.56,2.06-3.2,2.62-5.61s.07-5.31.46-6.75c.23-.84,4.77-.06,3.21-4.85-1.32-4.04-10.73-1.62-12.91-2.59-1.16-.52-2.76-3.02-4.48-3.75s-3.92,1.32-3.72-1.55c.4-.13.94-.59,1.63-.82,3.75-.32,8.57-1.04,11.95-2.65.04-.02-.2-.28-.52-.62,9.11-2.58,21.66-7.38,31.03-7.35Z"/><path class="dj" d="M568.34,609.99c2.67-2.7,4.8,1.29,4.91,4.2,10.36-1,9.74,13.58.2,12.33l1.26,6.45c2.77,2.04,4.25,5.5,4.42,10.38l12.48,9.1c1.5,1.58,2.65,2.82,1.23,4.9-1.48,1.71-1.6,2.68-4.08,4.9-4.69.97-7.95,2.88-9.8,5.72-.98.33-2.25.63-3.27.82-4.11-1.08-8.46-1.32-12.99-.72-6.62-.54-12.91-.3-18.86.72,4.97-.7,12.13-1.34,17.43-1.09.2,0,.37.48.54,1.09l.97.63c-7.8.44-15.74.78-23.83,1.01-2.78.23-17.82,3.22-16.23-2.69,13.12-16.93,26.76-33.5,39.92-50.39.87-.39,1.41-1.2,1.63-2.45,1.35-1.73,2.89-3.37,4.08-4.9Z"/><path class="db" d="M568.34,767.59c4.28-1.61,6-.68,5.17,2.8,10.17-.9,12.26,16.04,7.36,22.31l1.1,5.54c-1.72,4.69-1.25,9.77,1.43,15.24-2.57,6.48-1.39,11.22,3.53,14.22l.19,1.95c-9.6,4.7-17.74,8.4-27.76,12.25-5.94.23-7.41-4.47-8.85-9.37-1.43-4.84-3.03-12.34-1.73-17.01-5.95-6.22-2.45-8.52,3.97-11.35l.69-2.84c-1.71-4.94-1.51-9.14-.77-14.21-4.41-1.48-7.26-3.94-8.56-7.38,3.95-1.65,7.67-3.52,11.16-5.61.89-.39,2.01-1.08,3.27-1.63.97.16,3.6-.36,1.63-.82,2.62-1.18,4.81-3.56,8.17-4.08Z"/><path class="c" d="M213.13,705.53c-.57,2.78-3.36-1.26-.81.72,3.15,2.45,8.43,7.44,10.92,10.52l-.31,1.83c4.16,5.05,3.58,7.93-1.74,8.65.54,2.65-.25,4.83-3.28,4.41.03,7.26-1,14.47-3.1,21.64,3.2,6.51,4.37,15.9.91,22.58-.98,1.89-1.74,2.48-3.75,3.03-1.51,6.14-11.29,4.72-9.45,2.57.12-.14,3.05,1.84.82,2.44-5.64-4.63-11.82-8.88-16.33-14.7-1.03-.97-.41-1.76.82-2.45,2.61-1.24,2.2-6.27,2.45-6.54.6-.63,3.78,1.31,4.51.05,1.92-3.31-1.6-5.93-1.18-7.65.72-2.96,7.83-1.35,4.61-8.1-1.81-3.81-1.93-3.34-3.41-8.02-.4-1.25-2.1-2.33-2.11-3.65,0-1.66,2.53-2.46,2.52-4.07-.01-2.13-2.66-1.73-2.49-2.44.26-1.09,4.04-6.1,3.26-6.94-4.74.1-3.52-1.69-5-4.38-.61-1.11-2.38-2-2.39-3.37-.02-2.54,2.88-1.56,4.12-2.46.86-.62.7-2.14,1.26-2.82.91-1.1,4.06-1,3.63-2.88-1.15-5.07-7.12,1.77-8.98.39,3.76-3.65-1.79-4.97-1.63-5.3.52-1.05,2.93-1.66,4.03-2.5.77-.59,1.09-2.08,1.69-2.45.54-.33,7,.65,8.16-2.81,3.87,5,8.78,9.34,12.25,14.7Z"/><path class="ct" d="M605.91,743.91c4.03-2.09,3.45,2.53.61,4.43,4.81,6.96,5.77,9.66.22,17.13,3.45,3.46,4.35,5.16.37,8.83-1.75,3.74-5.11,25.39-3.1,28.45,2.99,1.75,4.25,4.74,3.76,8.97,2.01,2.09,2.75,3.99,2.22,5.69-7.95,4.65-14.6,8.2-22.86,12.25-2.28-.99-6.04-4.52-6.52-6.96-.69-3.54,1.21-5.88,1.18-8.64-.04-4.14-3.06-6.66-2.91-10.94.09-2.39,1.35-3.68,1.48-5,.18-1.79-1.45-3.91-1.18-5.49.2-1.17,2.32-2.97,2.6-5.3.35-2.8-.96-12.98-3.65-14.41s-7.98.89-5.72-5.31c-1.42,1.19-3.29-.12-4.08,0,12.63-7.68,25.57-15,37.56-23.68Z"/><path class="bt" d="M446.67,182.1c3.57.53,7.2.67,10.91.43,3.4.27,4.79,3.04,4.17,8.33,4.83-1.95,7.45,3.08,3.47,6.13-5.31,1.49-4.67,8.06-.54,10.62l2.5,8.29c1.94,2.23,3.17,3.83,1.13,6.6,5.86,4.39,8.27,11.29,9.72,18.03,6.03-.29,6.59,4.67.49,2.83-.27,0-.55.02-.82,0l-4.08-.82c-1.78-.21-4.56.75-5.72-.82.12-.77,1.04-.5.98-.51-15.35-2.08-31.05-2.22-46.71-1.94-3.21.66-7.85,1.45-10.62,0l.69-1.74c10.16-1.49,20.36-2.01,30.6-1.54l.57-1.76c3.72-2.03,3.96-2.21-.32-2.42-5.62,3.07-7.65,1.56-5.57-4.29-2.56-3.52-4.86-7.16-6.91-10.92,2.1-4.23-3.55-7.1-.73-1.83-1.11,4.73-5.88,2.39-7.4-1.66-2.47-6.56,1.37-12.25,5.94-16.44-9.33-.6-1.92-7.46,2.22-10.61.42-1.31.86-2.63,1.33-3.96,3.91-1.67,10.96-2.12,14.7,0Z"/><path class="ag" d="M332.35,783.92c.68,2.25-1.18,2.75-2.45.82-1.37-.09-1.47.79-.31,2.64l-1.27,3.47c2.71,4.16,4.93,10.81-1.33,12.54-.54,3.44-2.12,6.49-4.74,9.13.12,4.44-.74,4.18-4.07,3.04-3.67,8.28-5.47,14.17,5.58,16.1,3.05.86,6.51,14.05,5.65,15.56-.41.73-2.85,2.2-3.58,2.02-14.17-4.38-25.74-8.77-39.2-14.7,9.72-1.83,3.43-5.44,4.11-7.66.33-1.07,2.31-1.29,2.82-2.15.7-1.19.12-2.9.83-4.06.48-.79,2.09-1.01,2.46-1.6.47-.75-1.33-4.05-.08-5.82.84-1.19,3.5-.55,3.74-.76.25-.23-.7-2-.67-2.84.04-1.28.99-2.69.6-3.96-.37-1.19-2.27-1.36-2.79-2.17-1.41-2.23.17-6.78.11-9.26-.05-1.88-1.36-4.37-1.27-5.91.11-1.85,2.65-2.59,2.34-3.91-.21-.91-2.11-1.66-2.19-2.55-.05-.56,1.09-1.52,1.03-2.94-.14-3.47-4.8-8.47.38-9.72,10.96,5.41,22.76,10.66,34.3,14.7Z"/><path class="d" d="M414.01,179.65c3.21-.66,6.65-.79,9.8,0,6.45-.73,13.21-1.17,19.6,0l-1.73,1.17-23.63.35.05.92c2.93.73,6.05.69,8.98,0,1.34-1.59,3.58-1.62,4.9,0,3.88,6.44-6.81,7.19-6.53,13.06,11.48-2,.3,5.75-.91,8.49-1.6,3.62-1.82,13.31,4.17,11.92-1.77-2.19-2.77-6.91,1.41-5.08,4.56,1.99,1.46,4.61,2.26,6.69,1.26,3.28,7.69,8.11,6.8,11.69-.16.65-2.94,3.51.43,2.94.53-.09,1.41-1.27,2.62-1.51,3.23-.63,6.48.35,6.09,4.06-3.55-.04-5.08.4-2.46,3.26l-21.67-.03-12.62,1.67c-4.95,4.32-12.73.19-2.6-2.43-.23-3.99-1.07-7.91-2.08-11.77-5.43-1.72-8.09-5.19-7.66-10.9-2.61-2.2-3.48-4.63-2.6-7.28-2.91-1.37-2.92-4.59-2.06-7.42,1.76-2.76,6.86-12.14,2.54-13.41-1.71,7.07-18.33,6.22-18.21-1.51-.5-.16-1.74,0-2.45,0,8.99-2.72,18.43-3.36,27.76-4.08,2.1-.63,4.28-.9,6.53-.82,1.08-.05,2.18.04,3.27,0Z"/><path class="dh" d="M801.07,460.56c6.04-.83,12.82-.57,19.14-.31,2.74,1.45,5.78,2.7,9.12,3.73.86,2.58,1.47,5.38,1.82,8.41,5.02-.48,6.88.02,6.78,5.84,3.97,5,2.42,7.23-1.81,10.89-.03,2.66.56,5.31,1.76,7.95l-.88,2.69c-8.57,11.01-17.54,21.71-26.13,32.66-1.59-3.14-7.79-10.79-3.75-13.96,1.91-1.5,4.99.62,3.65-3.49-.93-2.87-5.9,1-6.44-1.75-.21-1.07,1.63-2.22,1.63-2.43,0-.83-4.37-1.33-5.33-4.45-1.2-3.89.81-9.58.39-10.98-.33-1.09-2.32-1.04-2.46-1.82s2.18-5.66,2.79-6.57c.53-.8,2.34-.8,2.86-2.46,1.13-3.58-2.11-6.11-1.51-9.61.47-2.73,4.21-2.32,3.99-6.6s-4.97-3.92-5.61-7.73Z"/><path class="i" d="M672.05,700.63c-1.03.89-2.37.59-1.25,2.46.37.61,5.18,5.14,6.15,5.99.42.36,1.83-.08,2.48.83,3.1,4.36-1.81,4.07-2.51,5.18-1.14,1.81-.37,5.82-.95,7.84s-4.79,3.66-3.11,7.92c-.4.45-5.74-1.58-6.51-.8-.12.12-.02,2.27-.4,3.25-1.52,3.89-2.88,5.79-4.87,9.04-.7,1.14-.79,3.16-1.46,3.85-1.49,1.54-4.34-.5-3.04,5.44.32,1.48,1.69,2.35,1.61,4.05-.18,3.84-5.3,8.8-5.61,10.88s1.72,3.29,1.39,5.35c-.29,1.82-3.26,4.4-3.67,7.11-.34,2.24,3.02,4.01-1.11,6.96l3.26,2.04c-2.69,2.15-5.32,4.39-8.17,6.53-4.56,2.08-7,2.32-5.59-3.73-5.08-9.05-2.36-19.06,1.51-28.11l1.04-34.88c1.21-3.43,4.04-5.35,8.49-5.77l-3.23-4.19c-2.53-3.23-3-6.25-1.41-9.06,1.08-1.15,2.38-2.29,3.27-3.27,4.01-4.22,8.31-6.36,12.91-6.41,2.95-.3,9.41-.84,10.77,1.51Z"/><path class="bs" d="M815.77,599.37c.79-.44,2.2-.35,2.86-1.63,2.01,2.44-2.09,4.5-2.08,6.11,0,1.44,2.06,2.05,1.66,3.68l-4.07-.81c-.38,2.7,1.28,7.55,4.52,4.92,1.46-2.11-2.72-5.1,3.22-4.95,2.97.08.17,2.69-.18,3.92-.39,1.37.06,3.28-.6,4.3-.87,1.34-5.99,1.32-6.15,6.98-.05,1.61,4.47,2.5,5.75,4.78.7,1.25,1.35,5.55.73,6.13-.38.36-4.32-.61-5.48,3.93-.81,3.14,1.05,7.37,3.93,8.74,1.24.59,2.86.26,4,.9,1.62.9,4.03,3.43,5.81,4.04,1.59.54,3.7-1.51,3.23.82s-4.4,4.48-6.14,6.11c-1.23-.56.57-2.86.34-3.17-2.28-3.16-16.23-4.31-14.62,1.11.56,1.88,4.48.97,5.96,1.41.99.3,1.5,1.52,2.24,1.84,1.39.58,3.14.11,4.04,1.27-2.58,1.34-3.78,1.69-6.53,2.45-15.88.34-31.64.12-47.3-.67-.07-1.99-.09-3.95-.06-5.87,13.9-19.15,29.63-36.98,43.49-56.16.56-.39,1.23-.08,1.43-.19Z"/><path class="bm" d="M449.12,802.7c4.08,2.39,9.33,1.73,13.42-.37,1.9.62,3.22,2.55,3.97,5.79,5.96,4.72,2.81,7.76-2.28,10.91-.43,5.02-2.19,8.77-5.29,11.26l-.91,2.02c4.78,1.48,4.08,23.3,2.71,25.14-7.01,2.48-.85,4.53,3.86,4.71l.86,1.78c-4.26.3-7.79.84-12.25.82-13.1.33-26.15.16-39.13-.51l.75-1.12c.08-.63.25-1.56.72-1.63,1.92-.3,15.9-.16,16.71.61.26.25.42.62.54,1.02-2.61-.61-4.34-3.94-3.48-6.63-8.87-2.74-8.53-17.57,1.33-17.61l2.16-12.49c.55-4,3.69-6.29,9.42-6.86-2.81.49-4-1.37-3.58-5.57-2.79-.24-4.62-2.22-5.51-5.93l-6.06-1c-2.42-.62-4.83-2.28-2.45-4.33,8.13-.62,16.36-.55,24.5,0Z"/><path class="aj" d="M244.16,474.44c-.56.92-2.43,2.67-2.43,2.86-.08,2.83,3.8-.4,4.32-.58,3.64-1.29,9.16-3.05,12.58-4.55,3.04-1.34,8.71-8.21,9.22-.99,1.51.72,3.26-1.51,3.67-1.5,1.13.02,1.79,3.06,2.59,3.2,1.79.31,2.92-1.42,5.44.01,3.37,1.91,1.73,3.97,3.39,6.44,3.65-.34,4.94-5.38,6.13-6.15.69-.44,2.57.29,3.91-.04,7.13-1.79,15.04-9.67,21.81-10.17,6.37-.47,4.73,4.38,6.59,4.93.85.26,7.45-3.71,10.95-2.06,4.33,2.05-1.47,5.94-1.61,8.61,1.73-.43,2.29-2.45,3.23-3.47.42-.46,2.21-2.16,2.48-.62-1.03,1.17-5.85,6.05-5.68,6.85,3.92,2.87,7.17,6.14,10.58,9.48-4.34.84-2.56,5.15-5.37,7.3-1.31.38-4.87-3.52-6.98-4.35-5.58-2.18-4.1.16-7.3,1.49-1.27.53-2.68.44-3.97.92-1,.37-1.96,1.76-3.05,1.86-1.23.12-2.29-1.56-3.5-1.96-5.81-1.91-4.9,1.62-6.25,2.04-1.57.49-2.93-1.28-4.17-1.45-.36-.05-6.73-.03-7.09.03-1.27.23-2.65,3.88-5.68,1.51-.84-.66-.46-2.35-1.8-3.27-3.6-2.48-10.35-2.1-13.63-3.34-1.07-.4-.94-2.08-1.93-2.39-1.8-.57-4.24,2.42-5.91,1.47-.83-.48-3.05-6.21-3.82-6.41-1.36-.34-2.1,2.26-4.08,2.44-2.97.27-11.72-1.04-14.28-2.45-2.18,1.19-3.27-.32-2.45-2.45,1.18-1.11,1.75-3.34,4.08-3.27Z"/><path class="z" d="M418.09,802.7c1.97-.68,4.73-.71,6.53,0,.53,4.26,6.94,2.25,9.45,4.02,1.72,1.21,1.7,4.48,2.12,4.83,1.7,1.4,5.33-1.18,3.95,6.67l4.07-.81c.83,6.12-7.37,4.09-8.59,5.69-1.73,2.27-2.99,16.63-3.73,17.09-1.87,1.16-5.44-1.26-6.91,4.92-2.3,9.64,6.91,9.71,6.97,11.08.02.34-1.41,1.49-1.36,2.44.06,1.09,2.72,2.73,2.2,4.5h-17.96c-.18,1.44,1.85.77,2.85.82,11,.46,22.49-.06,33.55-.03,1.05,0,1.87.85,1.98.85-11.26,1.23-22.59.72-33.92.85l-24.87-2.48.56-.68c2.46-.03-4.5.92-1.6-2.62l10.3-.75.19-2.98c-2.22-4.3-3.33-8.01.26-11.92-1.47-4.43-.95-8.21,1.56-11.33-2.21-2.98-1.96-6.55,1.98-7.6l2.27-10.85c-1.85-3.23-1.96-6.15-.32-8.75-2.08-.45-3.07-1.43-2.96-2.95.93-2.89,9.2-1.37,11.43,0Z"/><path class="ab" d="M222.93,718.6l1.82-.27,8.35,8.22,1.26-.6c2.44,2.2,4.8,4.43,7.35,6.53-3.93-.28-5.5,6.79-4.46,9.75.56,1.59,4.03,5.43,4.13,6.14.11.8-.62,2.09-.51,3.25.17,1.83,1.3,3.85.76,5.65-.75,2.48-3.59.16-3.99.52-.36.33-2.31,8.65-2.31,9.4,0,1.92,1.33,3.94,1.45,5.83.04.62-.24,6.57-.38,6.88-.49,1.09-2.84,1.59-3.27,2.35-.36.64.55,2.41.42,3.63-.58,5.41-9.19,5.79-5.7,12.73l-2.46.02.82,2.44c-8.28-5.7-15.09-10.76-22.86-17.15l-.82-2.44c5.77,2.28,5.28-.78,8.21-3.65.93-.91,2.63-.72,3.26-1.87.29-.54,2.52-11.3,2.49-12.05-.13-3.47-3.3-8.33-3.29-10.61s2.7-10.92,3.11-14.8c.18-1.69-.21-8.18.1-8.47s3.01.29,3.28.01c.31-.32-.46-3.16.1-3.99.39-.58,4.13-.62,4.8-2.17l-1.64-5.28Z"/><path class="bf" d="M645.1,512l4.07-1.63c-.53,2.68-.89,4.37.81,6.75.53.75,3.95,2.21,2.46,3.86-.34.37-6.2-3.51-4.89-.42,1.22,2.9,7.14,6.16,7.29,6.64.17.54-1.13,10.63-1.5,11.21-.64.98-2.28.79-3.39,1.94-.89.92-6.12,9.53-6.17,10.42-.27,4.77,5.76,3.99,6.24,7.41s-3.67,6.65-3.27,10.55c.23,2.29,4.23,5.7,3.29,9.65-.06.25-4.08,3.09-3.3,3.84,1.68,1.61,1.47-3.05,3.27-1.62.25.2-2.08,2.45.82,3.26-6.7,8.52-13.72,16.83-20.41,25.31-.5-1.74-1.99.98-2.29,1.38-1.75,2.31-4.7,8.56-7.55,5.44-.45-5.36,8.65-6.34,9.05-10.54.2-2.03-2.22-5.37-1.68-9.79.35-2.88,2.06-3.76,2.43-5.73.71-3.8,1.44-16.14,1.59-20.45.08-2.19-1.44-4.88-1.35-6.63.06-1.29,1.38-1.97,1.4-3.78.03-2.48-1.61-5.29-2.36-7.57-.27-.82.13-2.56-.06-2.76-.26-.27-5.29.72-5.71-1.24-.29-1.33,3.41-2.79,2.46-6.4-.19-.7-2.18-.22-1.64-1.74.82-2.33,4.8-1.17,5.65-3.34,1.55-3.94-1.6.25-3.21-1.16,4.32-5.46,8.74-10.88,13.07-16.33,2.39-.86,3.75-2.76,4.08-5.72.24-.3.58-.52.82-.82Z"/><path class="br" d="M704.71,591.21c6.65-1.17,3.51,5.5-.48,7.83l.1.84c12.39-9.1,14.78,6.23,6.91,12.97l.55,5.03c2.11,1.33,3.29,3.96,3.54,7.89,4.63,2.36,6.39,6.9,5.29,13.62l.63.73c2.11-2.39,5.82-1.23,3.88,1.72-6.75,9.18-10.06,17.5-21.23,22.05-10.55,1.02-21.29-.13-14.39-13.33,6.57-.35,6.08-12.83,4.52-16.61-.15-.36-4.59-5.84-4.96-5.96-4.51,2.84-10.12,1.53-9.67-4.12,6.77-8.63,13.61-17.46,20.41-26.13,1.07-.03,1.61-.84,1.63-2.45,1.08-1.37,2.19-2.72,3.27-4.08Z"/><path class="bd" d="M771.67,458.92c23.52-1.02,47.97-.97,71.62-.79.64.68.78,1.51.41,2.42-.67,1.63-17.87,1.16-21.84.95-.88-.05-1.74-.62-2.59-1.35-6.91.09-13.8-.05-20.65-.42-8.97.02-17.97-.02-26.94,0-.19,1.42,1.85.77,2.84.81,1.76.07,5.24-.41,6.46-.06,1.05.3-.11,3.01,2.55,3.37,4.27.58,5.74-4.53,10.19-3.31-1.01,5.57-7.86,11.31-8,16.73-.17,6.56-.18,4.41-1.6,10-.4,1.56.25,8.57-.2,9.2-1.29-.22-2.74-2.1-3.82-2.28-.35-.06-6.51,1.67-6.81,1.86-2.13,1.29,1.4,3.71,1.65,5.32-2.37.52-7.17.98-8.42-1.62-11.85,1.67-23.25,1.42-34.21-.74l-.65-1.73c3.62-6.2,19.3-26.62,24.47-31.47,3.48-3.27,10.73-6.62,15.55-6.91Z"/><path class="bd" d="M645.1,708.8c1.46.47-.24,2.21.18,3.07.61,1.26,1.74,3.5,2.63,5.15,1.12,2.08,5.28,4.82,2.38,6.55-2.5,1.49-5.84-.33-7.46,4.59l-1.04,34.89c-2.91,7.22-5.55,14.94-3.61,22.45.68,2.64,3.7,4.54,1.2,9.03h4.9c-3.83,2.88-7.55,5.49-11.43,8.17-18.4-1.15-13.89-34.44-8.94-46.42l-1.5-4.14c3.37-8.33,3.1-11.61-.79-9.85-6.07-1.8-10.56-4.85-1.78-7.53l5.66-5.55c4.81-6.8,13.43-13.88,19.6-20.41Z"/><path class="r" d="M371.55,546.3c.23,6.76-1.18,8.11-4.23,4.05-5.32-.22-9.14-1.82-11.47-4.78-4.37,1.88-7.98,2.22-12.31-.02l-7.56-.17c-12.33-2.88-26.85-5.09-26.16,12.15l-1.96,1.02c-.31-1.9-.58-2.17-.82-.82-1.18-1.76-1.08-4.37-1.63-6.53-.08-1.68-.37-5.36-1.63-5.72-1.24-.22-9.84-15.06-15.52-19.6-1.28-2.56,1.6-2.46,3.27-.91l.84-.93c10.4-1.53,24.96-2.8,34.87.12,2.41-2.19,4.84-1.95,7.21.09,3.37-2.23,7.15-1.73,11.34,1.51,3.62-.3,7.17-.41,10.67-.33.97-3.05,3.31-8.79,6.91-7.72,4.12,9.19,6.94,18.56,8.17,28.58Z"/><path class="j" d="M298.05,350.32c-.11,0-.92.81-1.98.85-6.4.21-12.86-.23-19.25-.02,0,1.78,2.92.23,3.97.92.4.26.37,2.12,1.15,2.93,1.26,1.29,3.42,1.81,4.56,4.01,3.74,7.2-2.95,5.24-3.97,7.26-.42,2.06,2.39.88,2.44,3.19.03,1.35-1.45,3.68-1.64,5.77-.58,6.6,1,13.56-2.07,19.97-1.43,2.98-7.36,3.86-6.09,9.02-.09.77-.48,1.29-1.2,1.53-4.12-.85-7.38-.39-9.8,1.39l-8.6-.47c-5.98.05-11.99-.04-17.96,0l-.14-.8,6.66-.83c-6.08,1.55-11.53,1.28-16.33-.82l.92-1.63h9.36c-1.73-3.89.34-7.38,6.23-10.47l6.07-10.68c7.38-2.1,12.1-7.44,14.15-16.04,2.66-2,2.85-5.12.57-9.37l-7.08-.06c-3.1-.15-7.61-1.51-5.96-5.07,8.33.07,16.58-.12,24.74-.57,7.06-.2,14.17.15,21.23,0Z"/><path class="m" d="M625.51,729.21c-1.13,1.6-3.82,6.55-5.11,7.17-.8.38-4.02-1.06-4.69,1.8,2.13-.06,3.52,2.18,5.38,2.47s4.27-1.73,5.11,1.41c.89,3.35-2.28,9.03-2.18,10.29.1,1.14,1.68,2.22,1.5,4.16-.12,1.29-1.56,2.54-1.93,3.93-1.94,7.36-3.47,27.35-.06,34.04.21.41,3.39,5.14,3.63,5.35,1.43,1.2,4.78.47,5.7,2.88-8.01,5.54-14.42,9.76-22.86,14.7-1.01-.83-3.68-4.64-3.92-5.48-.5-1.77.22-3.83-.29-5.42-.63-1.96-3.89-.85-4.29-6.95-.19-2.83,2.74-22.34,3.66-24.97.77-2.18,3.03-3.53,3.16-4.25.29-1.63-3.14-2.72-3.2-4.77s4.27-5.39,4-9.89c-.14-2.28-4.65-3.7-4.03-7.97.03-.23,4.42-4.01.83-3.8,6.57-4.75,12.46-11.01,19.6-14.7Z"/><path class="k" d="M647.55,458.92c15.38-.94,30.69-1.01,45.94-.19l-.21,1.01c-12.49.64-25.07.64-37.56,0l-2.45.82-4.08,3.27c-.07,2.17,2.18,2.83,3.09,4.66,1.03,2.09,1.02,5.02,2.34,7.18-4.13,6.06-3.76,13.86-5.88,20.76-.12,2.32,5.1,3.94,4.54,6.98-.98,1.66-1.55.36-1.63.42l-45.32-.82c-2.56-.28-2.63-2.86-1.26-4.53,13.54-12.54,22.14-37.93,42.5-39.57Z"/><path class="dp" d="M583.04,591.21l1.63,1.62c.65,2.09-.93,1.48-1.29,1.94-2.13,2.71-2.81,3.89,1.72,3.86,6.47-.04,5.69-7.9,10.6-8.15,6.76-.35.23,9.77.36,11.69.05.76,2.45.93,2.49,1.69.01.23-2.24,1.84-2.21,3.95.06,4.39,5.33.14,5.96,3.8.52,3.03-5.22,6.85-1.74,13.94.58,1.19,2.63,3.15,2.67,3.61.12,1.39-3,4.53-3.48,6.1-.92,3.03.02,5.27.45,8.21l4.89-1.63c-4.2,5.27-7.82,10.4-12.25,15.52-.7-1.74-1.78-3.33-3.23-4.53-2.22-1.85-10.58-6.66-11.84-8.58-1.76-2.68-.64-6.06-1.66-8.15-.55-1.12-2.36-1.09-2.85-2.24-.27-.64-1.73-8.28-1.64-8.71.59-2.83,3.8,1.82,6.15-1.19,3.75-4.8-.73-11.04-6.16-6.61.05-3.13.45-6.59-3.27-7.35,4.89-6.26,9.8-12.53,14.7-18.78Z"/><path class="by" d="M284.99,605.09c2.34-.08,4.23-1.01,5.67-2.8,4.05,1.75,8.54,1.29,13.48-1.38,8.45-.34,17.07.35,25.86,2.06,10.12-2.38,19.88-2.76,29.28-1.13,1.21,1.27-.21,10.19-.79,12.24-1.79,3.33-3.61,6.65-5.72,9.8-1.45.78-3,1.99-4.66,3.61l-1.87-.34c-.82-1.46-3.07-6.07-4.58-6.36-1.61-.3-8.22,1.22-10.54,1.45-4.76.47-9.4,1.12-13.27.22-4.46-1.04-5.41,1.41-7.15,1.43s-3.57-3.58-5.59-3.16c-1.18.25-1.64,2.55-4.13,2.35-2.68-.21-4.13-4.06-6.99-4.55-1.71-.29-3.75,1.01-4.98.11-1.44-1.05.05-4.6-2.09-5.32-3.65-1.22-9,5.5-13.73,4.08-.82-.25,0-3.24-2.08-2.52l2.24-1.42-.61-1.02c2.98-1.31,9.57-5.35,12.25-7.35Z"/><path class="h" d="M252.33,350.32c.57,1.62.4,2.07-1.2,2.37l-14.94.2c7.93,3.31,7.82,12.27.72,16.51-4.2,6.73-7.18,14.1-8.95,22.12l-3.47,5.89c-.19,2.21-.71,3.93-1.56,5.17l-2.16,1.43c-3.4.28-25.05.57-26.26-.26-.4-.28-.7-.7-.97-1.17,5.29-17.01,17.67-39.1,27.76-53.89l31.03,1.63Z"/><path class="w" d="M307.85,558.55l1.64.76c-.19,5.06-.65,17.59,2.66,5.33,1.99-3.02,6.4-6.52,9.29-2.54,2.38-1.15,3.67-.56,5.75.53,3.68-1.56,6.48-1.04,8.39,1.57,9.32-2.93,23.4-.56,32.48,2.32.82,2.99,1.86,5.65,3.13,7.99l-.46,4.45c-.17,5.75-2.29,10.97-4.08,16.33-4.38,3.25-6.27-5.67-1.91-7.39-4.36-2.93-9.6-2.7-15.73.69-2.59-1.37-5.54-1.58-8.84-.63-8.2-3.11-16.05-3.72-23.55-1.84-4.48,4.58-8.68,5.71-12.6,3.39-1.47,3.52-7.52,8.86-6.77,2.51,7.99-11.53,9.26-20.59,9.8-34.3.03-.81-.03-1.64,0-2.44h.8c.04,1.08-.02,2.18,0,3.26Z"/><path class="di" d="M307.85,558.55c1.53-4.53.36-13.48,6.3-15.34,3.6-1.13,13.1-1.83,16.73-.74,7.58,2.26,5.91.97,12.45,1.41,1.94.13,3.34,1.79,6.58,1.68,2.32-.07,5.28-2.01,6.41-1.65s1.23,2.4,2.74,3.04c3.33,1.42,12.31.26,10.86,5.88l1.63-6.53c1.29,10.53,1.65,22.26-.82,32.66.04-1.36-.02-2.73,0-4.08h-.8s-.82,4.89-.82,4.89l-1.78-12.11c-4.61-.58-9.19-1.25-13.75-2.17-5.76-1.16-6.46-1.71-12.52-.94-1.71.22-5.54,1.56-6.54,1.4-.79-.13-.71-2.03-1.85-2.43-1.89-.66-3.78.82-5.58.72-1.3-.07-2.53-1.39-3.3-1.33-.65.06-1.44,1.42-2.35,1.27-1.06-.17-1.96-3-4.09-2.33-.28.09-4.01,3.81-4.15,4.06-.83,1.45,0,3.56-1.62,4.98-.69.6-3.4.06-3.64-.19-.41-.45-.03-10.21-.08-12.16Z"/><path class="cc" d="M975,458.92c-.7,1.42-2.84.63-4.08.82-22.87.5-45.89.64-69.05.41l1.28.4c.77,2.69-4.2,1.71-4.1,2.87.2,2.37,4.89,7.28,3.97,11.26-.56,2.4-6.2,3.61-3.14,8.73l-4.07-.82-1.24,7.35c-1.55,1.32-6.47,6.14-6.18,7.71.14.77,2.19.23,2.51,2.91-2.61.03-5.4-.13-8.37-.48-8.1,2.06-17.19,1.91-23.91-3.41-2.92-2.31-3.28-3.75-2.84-7.54.58-.57.82-.99,1.63-1.63,5.11-4.32,9.54-9.06,13.28-14.2.76-5.26,3.8-8.97,9.3-9.55l.29-2.38c3.85-1.87,7.49-2.95,11.81-3.3,25.76-2.04,54.11,1.63,80.15-.03,1.19-.42,2.15.7,2.76.88Z"/><path class="cn" d="M725.95,564.26l1.64,5.71c-1.5,0-5.41.45-6.2,1.62-.52.77.36,1.98.21,2.77-.18,1.01-1.38,2.14-1.01,2.97,1.01,2.32,3.48.66,4.54,1.18,1.44.7,1.47,3.54,3.69,3.76,4.69.47,5.72-7.38,9.52,1.04,3.37,7.47-1.98,5.61-3.23,10.12-.48,1.74.07,3.62-.34,5.37-.52,2.23-3.43,5.06-3.87,7.56-.6,3.39-1.82,13.01-1.65,16.24.23,4.49,3.85,2.65,1.93,9.83-.14.52.52,1.16.49,1.23-1.28,3.36-4.84,5.86-6.53,8.17-2.33-4.35-2.37,2.2-5.31-.81s1.35-8.02-2.51-12.22c-.77-.84-2.08-.69-2.51-1.12-2.76-2.69-1.58-7.41-2.01-7.84-.34-.34-2.02.49-2.39-.55-.15-.4-.87-5.9-.8-6.4.3-2.34,3.39-3.23,3.94-5.11.41-1.38.47-7.4-.2-8.45-1.94-2.99-8.99,3.4-10.24,2.49-.15-.11-.77-2.47-.45-3.23,1.03-2.48,7.89-4.36,2.08-7.38,7.05-8.99,14.18-17.96,21.23-26.95Z"/><path class="dm" d="M471.17,180.47c3.69-.01,6.23.32,9.8.82l-7.35,1.22c.65,1.68,4.52,1.8,4.8,2.13.58.68-.3,4.41.1,4.81.3.29,7.44.24,8.25,1.31,1.66,2.2-.34,3.85-.5,5.63-.32,3.59-1.4,11.83-1.2,14.67.15,2.03,2.02,3.07,2.2,4.23.16,1-.69,2.27-.46,3.76.95,6.07,7.98,7.02,8.07,7.59.54,3.32-1.94,4.87-4.94,4.47-.17,1.88,1.85,2.31,1.66,4.42-.03.33-2.43,5.77-2.66,6.01-1.08,1.11-4.01.97-5.53,1.01l3.26.82-3.26.81c-1.44-.27-3.99.73-4.9-.82.96-.03,3.43.62,3.26-.81l-8.16-.83,3.25-2.01c-2.52-3.69-2.42-7.45-5.03-11.3-1.2-1.78-4.74-4.41-5.2-5.44-.5-1.12,1.41-2.27,1.15-3.57-.13-.68-1.6-1.59-2.09-2.81-.9-2.26-1.85-7.25-2.64-8.59-.4-.68-1.78-.67-2.32-1.93-1.23-2.85-1.37-6.98,1.09-9.19,1.27-1.14,4.39-1.01,3.61-3.72-.91-3.21-4.48,1.12-5.31-.4-.03-13.17-1.31-9.07-11.48-9.78-1.05-.07-1.87-.84-1.98-.85l.71-1.63c8.17,0,16.1,0,23.78,0Z"/><path class="bp" d="M378.9,184.55c.4.13,4.22,3.84,4.67,4.09,1.58.89,9.02.19,10.68-.54s.79-2.96,2.28-3.49c4.56-1.63,3.83,4.63,3.39,7.49-.79,5.12-5.41,6.58-3.88,12.3.25.92,2.11.84,2.34,1.84.16.68-.69,1.94-.55,3.05.26,1.94,2.53,2.99,2.95,4.42.48,1.65-.17,3.42.59,5.13,1.75,3.91,5.35,3.92,6.74,5.1.8.67,2.79,12.12,2.52,13.11-.19.7-.87,1.51-1.51,1.82-1.49.72-3.99-.33-4.08,1.21,2.18.89,5.31-.74,6.53-.81,3.51-.19,7.1.17,10.62,0,.56.08.91.16.82.82-10.06.49-20.17,2.48-30.21,3.27l-4.08-1.62c1.44-.72,6.29.28,5.71-2.46-7.86,2.28-3.88-6.13-5.63-8.49-.53-.72-6.01-.73-7.83-5.44-.86-2.23-.03-9.28-.82-10.57-.36-.58-5.9-6.17-6.89-7.03-.6-.52-.84-1.75-.98-1.82-.34-.18-2.86,1.18-3.97.69v-2.44c10.2,1.73,8.59-11.73,2.45-15.51l8.16-4.09Z"/><path class="az" d="M297.24,592.03c2.13,4.53,4.64-3.86,6.26-4.14s3.18,1.76,5.41,1.55c1.36-.13,4.46-3.88,7.35-4.92,1.69-.61,4.21-1.18,5.99-1.36,7.96-.82,11.26,2.74,18.68,3.24,1.9.13,3.68-.9,4.94-.82s2,1.49,3.08,1.41c2.33-.17,7.07-3.18,9.92-3.22,2.63-.04,10.07,3.57,7.77,5.81-.31.3-4.41-1.38-2.05,4.92,1.04,2.78,1.85-3.48,2.05.8-2.39,7.14-4.61,12.15-8.17,18.78-.44-3.78-1.12-7.76,0-11.43-2.64.83-6.58-.88-8.62-.74-4.48.3-10.78,1.76-15.43,2.41-9.69,1.36-18.05-2.63-26.91-2.42-2.92.07-9.9,3.24-13.3,3.88l-3.12-2.32c-1.52,2.87-3.43,3.72-6.12,1.63,4.2-3.14,9.25-8.74,12.25-13.07Z"/><path class="ci" d="M679.4,623.87c1.67.73,2.24,3.51,3.84,3.98,2.29.69,6.15-2.68,7.52-1.45.15.13.19,1.88.86,2.78,1.01,1.37,3.52,2.73,3.95,4.24.41,1.4.98,10.12.79,11.85-.99,8.67-8.27,2.43-7.17,12.5.95,8.73,9.94,1.5,14.71,6.11-8.39,3.42-13.25,2.32-22.05,2.45-8.46.62-17.08.57-25.6.43-5.36-.09-6.67-1.94-5.43-6.96,8.85-12.55,19.22-23.98,28.58-35.93Z"/><path class="al" d="M390.33,797.81l4.08.82c.41.13,1.12-.09,1.63,0l.45.98c-3.41.17-6.83.12-10.25-.17,2.53.81,5.08,1.53,7.66,2.17-1.34,4.9-2.05,9.86-2.13,14.89,4.79,1.7,2.71,9.25.23,12.61-1.3,7.06-1.54,14.1-.72,21.13.41,4.43-1.96,5.73-5.93,5.69-.22.26-.09,5.39.28,6.13l-4.29-.55c-3.41-.01-7.48-.13-10.62-1.63l.64-1.65c2.12-.04,5.62-.33,3.35-2.91-5.04-2.83-8.61-6.63-4.98-12.28-1.61-3.45-1.52-7.59.28-12.43-3.53-6.16-5.22-17.83-.24-23.54-2.17-3.5-3.21-7.4-3.14-11.71.9-.6,2.26-.87,4.08-.82,6.29,1.31,13.21,2.33,19.6,3.27Z"/><path class="p" d="M249.88,619.79c.77.12,1.66-.09,2.45,0l-.81,2.44c6.11,1.88,5.95-2.66,7.1-3.29.64-.35,6.49-1.82,6.78-1.6-2.77,2.66-.37,4.63-.15,7.74.1,1.37-1.06,3.15-.71,4.75.2.91,2.64.93,3.19,2.77.61,2.02-.49,3.7-.39,5.42.61,9.92,6.62,5.47,7.8,6.3.41.29,2.93,7.4,4.97,8.58.99.58,2.31-.57,3.45-.27.77.2,6.11,2.03,6.3,2.31.64.94-1.05,3.05-.04,4.47,1.73,2.44,7.04,1.52,7.4,3.29s-3.54,4.83.04,6.07c-5.58,2.29-15.4,6.49-21.23,6.53-2.61-1.98-2.88-1.98-.82,0-2.56,1.52-6.08,1.65-8.98,1.63h-.82c-1.58-1.97-.72-3.22,1.53-4.07-1.32-2.06-1.82-4.44-1.5-7.13-8.48-.16-18.12-11.51-12.46-18.97l-2.08-6.05c3.39-3.96-1.86-10.64-4.71-14.21-7.09-5.43-4.03-7.06,3.7-6.74Z"/><path class="s" d="M503.02,792.09c2.53,3.16,5.45,5.96,8.78,8.41.7,3.58,1.03,9.8.81,13.68-.27,4.76-.8,7-3.69,11.11,1,3.69.43,6.87-1.7,9.56.79,5.43,1.08,10.85.87,16.26,2.7.4,4.06,1.42,4.06,3.04,1.57-.12,2.68-.19,3.12,1.64-4.79,1.12-9.77,2.86-14.7,3.27-.92-.41-2.86-.84-1.63,0-2.25,1.67-5.64,1.23-8.17,1.63-6.37-.24-.27-5.92,4.04-4.77l-2.98-4.3c-3.75.36-6.48-1.17-6.74-5.12,2.85-15.19,3.53-30.04,2.32-45.3l-.96-.09c-2.7,1.94-9.64,3.01-11.19-.03-.19-.46-.34-.91-.38-1.38-.21-2.43,8.42-2.72,10.67-2.76,2.83-.56,7.5-1.61,10.13-3.21,2.46-.52,4.9-1.04,7.35-1.63Z"/><path class="n" d="M363.38,517.72c-3.81,3.64-5.84,6.69-5.72,12.24-2.59.67-2.15-2.91-2.49-3.23s-6.71,1.06-9.28.71c-3.29-.45-5.1-3.06-6.63-3.22-1.96-.2-3.42,1.7-4.87,1.64-1.2-.05-2.11-1.53-3.32-1.65-1.74-.18-2.72,1.63-3.88,1.53-.98-.08-2.26-1.39-4.2-1.52-7.29-.48-14.95.34-22.08.84-2.17.15-5.46-.44-7.18-.01-.94.24-1.12,2.41-1.79,2.46-.3.02-2.88-3.34-3.68-1.62-2.57-2.06-5.79-3.37-8.17-5.72.18.05,1.95-.67,3.26.82l.82-3.26-3.26.81c.13-.92-.33-2.51.11-3.15,1.93-2.81,13.19-1.43,16.53-1.84,4.48-.54,11.83-2.66,16.94-3.63,7.43-1.41,19.13-4.59,26.27-2.83.86.21.91,2.07,2.22,2.85.87.51,2.28.36,3.19.91,1.71,1.02,2.34,3.41,4.95,2.8-.54-5.14.08-7.56,4.09-10.61,3.14,4.78,5.83,9.48,8.17,14.7Z"/><path class="bw" d="M370.73,794.54c-.71,1.38-2.79.69-4.08.82-1.56,1.68-2.98,3.71-4.27,6.1l-6.06,2.58c2.43,6.62,1.37,11.16-3.17,13.62,2.57,2.92,1.87,6.34-2.1,10.25,4.19,5.8,6.63,12.74,7.32,20.8,4.3,3.55,3.96,6.52-.71,8.71-5.58-1.08-11.18-2-16.73-3.28-.4-.15-.46-.42-.42-.8-.84-.69-.34-1.41-.29-1.29.81,1.81-6.79-2.56,2.41-2.79-2.11-6.43-4.57-12.98-7.37-19.64l1.37-4.19c-3.38-3.6-5.26-10.19-1.64-14.11-1.37-1.85-.91-3.77,1.36-5.75l1.55-6.62c-1.73-2.42-1.31-5.17,1.27-8.25-4.05.94-11.88-1.27-9.28-5.96l2.45-.82c11.96,4.18,25.97,8.03,38.38,10.62Z"/><path class="dq" d="M530.78,784.74l1.87.09c2.48,2.77,5.33,5.2,8.54,7.27l-.53,24.54c-2.35,5.13-3,9.93-1.94,14.41-2.23,2.55-3.31,5.64-3.26,9.29-5.32,3.46-.59,4.69,3.46,5.52,2.83,5.76-4.87,2.56-4.45,2.58.59.02,1.96,1.07,1.21,1.65-5.11,1.56-9.52,2.76-14.7,4.08-5.05-.51-8.73-8.61-4.1-12.51-2.43-2.94-1.32-6.03-.13-9.3,3.66-6.76,5.33-13.7,5.03-20.81,3.71-6.66,2.18-8.61-3.45-12.98-.36-4.09-1.4-6.12-3.11-6.06-5.28,2.82-7.99,2.41-8.13-1.21,3.53-.9,22-5.64,23.68-6.53Z"/><path class="bz" d="M383.8,364.2c1.29,2.98,1.21,3.7-2.25,3.51-1.83,3.74-.88,6.54,3,2.79l1.7,1.05c3.29,3.56-5.14,12.65-8.98,9.8-.9-2.48-.26-4.85-2.98-6.46-3.06-1.81-5.79,1.27-7.92.66-1.61-.46-1.51-2.89-2.38-3.78s-8.02-3.37-8.76-2.66l.81,4.07c-4.32-.18-8.28.8-12.3-1.17-3.64-1.78-4.05-2-8.05-3.38-7.24-2.51-7.21-13.83-12.07-16.72-3.17-1.89-7.84.48-10.87-1.59,23.21-.31,54.83-5.22,71.04,13.88Z"/><path class="cy" d="M406.66,802.7c8.73,3.06,3.3,2.29,3.31,6.94,0,1.54,1.73,2.82,1.59,4.84-.04.62-2.33,11.19-2.65,11.71-.38.62-2.56.76-2.99,2.39-.47,1.81,1.63,3.24,1.39,4.6-.16.91-1.76,2.05-2.13,3.58-.76,3.12.87,6.01.49,7.81-.26,1.23-2.06,2.26-2.29,4.34-.33,3,1.58,4.66,2.07,6.86.34,1.55-.79,3.21.38,4.9l-13.06.83,7.34.82c-.45,1.52-4.37.81-5.71.81-4.26-.01-9.03-.05-13.07-1.63,1.36,0,2.72,0,4.08,0l-6.52-1.62c7.99,1.15,3.38-2.27,5.25-4.97.83-1.2,3.51-.4,4.59-1.12,2.13-1.42-.04-7.73.19-9.74.46-4.06.81-12.27,1.53-15.41.32-1.39,1.94-2.22,2.34-5.08.12-.9.14-5.03-.11-5.28-.35-.35-2.22.43-2.41-.5-.29-1.45-.12-6.42.1-8.08.21-1.56,2.97-7.3,1.59-8.62-.4-.39-5.29.98-5.72-1.63,6.82-.26,13.44.38,19.87,1.94l.55,1.33Z"/><path class="cv" d="M555.28,774.12c2.06.58-2.09,2.11-2.29,2.2-2.42,1.07-4.9,2.19-7.51,2.72.32,4.42,7.63,5.46,8.62,7.34.85,1.62-.76,5.93-.49,8.59.33,3.22,2.85,6.25.43,10.18-1.01,1.64-7.07,2.4-6.81,5.18.17,1.83,2.98,3.2,3.16,5.05.15,1.53-1.02,3.56-.89,5.69.13,1.96,1.36,3.22,1.65,4.95.71,4.16.76,9.4,4.12,13.03.9.97,3.54.95,4.09,2.85-7.93,3.05-15.54,5.68-23.68,8.17l-1.21-1.65c2.88.47,4.15,2.21,3.67-1.62-2.46,1.23-7.42-2.4-7.22-4.51.11-1.14,2.61-1.52,3.11-2.68.69-1.6.07-4.34.65-5.65s2.31-2.3,2.49-3.2c.24-1.22-1.25-2.75-1.07-4.49.38-3.72,2.73-5.25,3.04-10.91.41-7.49.26-15.18.71-22.76-3.35-2-7.41-4.12-9.05-7.87,7.3-3.86,16.22-7.03,24.5-10.62Z"/><path class="ck" d="M329.9,784.74c.39.39.52,1.74,1.24,2.4,3.66,3.31,6.65,1.77,11,1.69.47.35-3.89,6.11-3.95,7.06-.07,1.03,1.3,1.79,1.32,2.97,0,.55-1.35,6.44-1.65,7.31-.43,1.27-2.06,2.06-2.19,2.76-.19,1.03,2.22,2.64,1.55,3.54-.21.28-2.25-.11-2.48,2.08-.04.38.33,5.81.45,6.09,1.4,2.98,5.18,3.38,1.57,9.06l7.78,18.37.04,2.81h-5.72s2.46,1.65,2.46,1.65c-.11.38-.82.68-.84.8-5.18-.05-9.92-2.61-14.7-4.08l.53-.93-3.79-.71,5.71-.82c-1.52-3.97-1.76-11.35-5.42-13.77-1.65-1.09-7.41-2.31-8.09-3.34-2.24-3.35.01-14.77,4.12-17.18l2.03,3.26c-1.59-4.75,1.36-5.08,3.31-8.53.89-1.57.88-3.89,1.52-4.83.96-1.42,4.69.34,3.31-6.6-.38-1.89-2.31-3.02-2.34-4.91-.02-1.5,1.48-3.46,1.38-4.14-.16-1.15-3.7-1.43-3.09-3.64,1.74-.03,3.62.36,4.9,1.63Z"/><path class="e" d="M462.19,799.44c3.97-.76,6.69-.21,8.17,1.63,2.14.35,2.52,1.02,2.39,3.05,9.72-.61,7.04,20.73,5.68,27.01-4.42,6.56-4.27,14.02.44,22.4-1,3.99-.54,6.32,1.38,7.01l.73,1.78c-5.2.67-10.28,1.26-15.52,1.63l-10.61-1.62,2.44-1.24c-5.29-3.97,1-3.81,2.28-4.64,1-.65.2-9.12.13-10.91-.13-3.71.81-6.14-.94-10.45-.65-1.6-2.75-.6-2.29-3.32.58-3.35,4.41-4.71,4.81-5.94.77-2.36-.9-5.43,2.74-9.06.79-.78,2.4-.45,3.13-1.55,2.62-3.94-.8-4.37-1.99-6.19-.95-1.45-1.94-5.33-2.18-5.5-1.07-.78-11,5.47-13.86-.83l.73-1.09c3.52-.05,6.95-.27,10.28-.67l-.4-1.51c.81-.02,1.64-.04,2.45,0Z"/><path class="ax" d="M366.65,795.36c3.15,2.38,1.82,5.02,2.62,7.59.53,1.7,3.07,3.87,2.15,5.36-.19.3-1.82.29-2.2,1.43-.94,2.84-.87,13.13.06,16.07.45,1.44,2.06,1.59,2.34,4.23.41,3.78-1.84,6.42-1.76,9.04.06,1.8,1.64,2.88,1.55,3.91-.11,1.3-1.73,2.32-1.48,4.96.43,4.6,6.66,4.63,7.14,8.37.44,3.38-3.9,3.5-6.33,3.55-5.05.1-8.48-1.56-13.07-2.45l.47-.81c-4.41-1.12,1.9-1.93,1.96-2.86-.06-1.5-3.14-4.01-3.22-4.27-1.39-5.03-1.9-12.77-4.56-17.34-.89-1.54-3.12-2.02-2.87-4.49.18-1.79,3.87-4.33,3.84-6.58-.02-1.47-2.45-2.88-2.17-4.06s4.22-.55,4.75-5.14c.27-2.32-1.59-7.16-1.04-8.4.95-2.18,4.85-1.9,6.49-3.24,1.39-1.13,1.86-4.45,2.2-4.75.52-.46,2.25-.04,3.13-.13Z"/><path class="bn" d="M733.3,460.56c1.07.28,1.59,1.12,1.55,2.52,2.77.96,5.9,3.68,6.61,6.46-5.02,8.08-13.56,16.8-19.6,24.5-.58-.45-3.74-1.63-3.88-1.79-.67-.81-1.67-7.35-3.49-9.21-2.81-2.87-15.25-6.57-17.72-9.63-.87-1.08-.59-2.67-1.28-3.63-.63-.87-4.2-3.45-5.43-4.97-1.01-1.25-2.28-2.59-2.5-4.25,15.21-.57,31.71-.78,45.73,0Z"/><path class="cr" d="M541.4,195.16c-.36,1.43-4.04-.09-3.26,2.03.14.39,1.1.98,1.39,1.88.5,1.56.72,4.86,1.27,5.67.42.64,2.21.85,2.65,1.79.22.46.03,8.48.34,10.23.16.9,1.93.13,2.36.55.22.22,1.66,5.62,1.67,5.98.04.9-.74,4.48-1.15,5.32-.85,1.71-3.41,2.2-3.65,3.06-.84,3.1.78,7.65.83,10.85h-3.28c-1.1,2.25,2.6,10.3,2.44,10.99-.23,1.03-2.76,1.32-3.72,2.06-.85.66-.93,2.38-1.72,2.54-1.46.3-3.54-1.09-5.16-.87l6.34,3.05-.63,1.02c-4.19-1.79-9.73-4.21-13.88-5.72l.52-.91-5.42-1.95c7.64-.26-.61-7.25,8.18-6.13l-3.12-14.08c2.16-4,4.73-9.09,9.53-9.72-.62-2.45,1.55-4.49,1.76-6.06.06-.43-.22-7.86-.32-8.53-.42-2.66-3.11-6.27-4.19-8.95-1.6-3.99.71-4.16-5.29-6.14,1.09.13,3.4-1.2,4.08-1.22,3.84-.13,7.82,2.13,11.43,3.27Z"/><path class="af" d="M475.25,801.07c1.39.04,6.75.11,7.71-.03,1.48-.22,2.41-1.77,4.11-1.66,3.2.19,1.71,4.75,2.1,6.96.85,4.91-.12,8.96.14,10.49,1.78,10.21-1.52,14.86-1.74,24.66-.04,1.73-.99,3.47-.87,4.87.47,5.21,4.66,2.96,6.35,3.89.57.31,2.93,5.23,4.24,5.95-2.28,2.7-4.15,1.02-5.99,1.19-.3.03-1.04,2.56-2.98,1.67l2.45,1.63c-3.27.53-6.48,1.2-9.8,1.63l-4.9-.82c2.47-2.32.36-2.63.33-3.67-.03-.87,1.01-1.63,1.01-2.43,0-5.56-5.95-10.5-3.59-19.42.45-1.72,2.93-3.24,2.99-5.05.21-6.37,1.74-14.02.82-20.38-1.06-7.34-5.55-3.64-6.45-4.57-.21-.22.3-3.93-.82-4.9.47-2.24,4.52-2.37,4.9,0Z"/><path class="f" d="M848.43,485.05c-2.59.52-9.1,3.16-4.9,5.72-2.14,2.78-4.27,6.07-6.53,8.98-.68-3.71-3.24-7.14-2.45-11.03.48-2.4,2.96-2.19,3.71-3.66,1.45-2.82-1.08-4.23-1.87-6.33-.5-1.33.25-3.85-.98-4.76-1.77-1.31-5.16,3.23-6.54-3.24-.33-1.58.43-3.94-.21-5.1-.79-1.44-5.13-1.58-6.36-2.22s-1.28-2.65-2.2-2.87c-3.88-.95-14.11.23-19.03.02-.9-.04-2.06.25-2.45-.82,13.58-.03,27.74.55,41.25,0,.99-.04,3.04.62,2.85-.81h-71.04c.85-1.36,3.1-.82,4.48-.84,24.17-.25,55.91-2.2,79.25-.02,5.57.52,9.4,2.75,7.36,9.06-.79,2.43-11.79,14.62-14.33,17.92Z"/><path class="ch" d="M507.1,791.27l2.04.82-.82.82c2.22.27,6.84-2.96,8.57-2.09,2.62,1.3,1.94,5.13,2.88,6.98s3.99,1.75,5.24,5.39c1.78,5.19-.94,4.95-1.54,8.13-.42,2.26.31,4.93-.08,7.26-1,5.83-5.64,13.68-6.37,19.04-.26,1.88,1.5,2.61,1.53,3.88.03,1.47-2.39,2.86-2.4,4.89,0,1.51,3.5,6.4,4.85,7.76-1.84.47-3.59,1.14-5.72,1.63h-6.53s2.45-2.45,2.45-2.45c-7.29.1-3.98-3.98-4.13-7.71-.13-3.29-2.38-5.73-1.54-10.63.37-2.15,1.98-3.1,2.27-4.33.42-1.79-.85-3.33-.55-5.3s3.21-5.13,3.51-7.05c.51-3.21.09-7.58-.22-10.47-.22-2.02,1.39-3.72.27-5.97-.54-1.09-2.74-1.83-3.74-2.81s-1.48-2.28-2.49-3.27c-1.22-1.2-3.57,1.06-1.56-3.71,1.33-.32,2.73-.47,4.08-.82Z"/><path class="cd" d="M547.93,333.17c2.01-.12,1.54,1.56,1.64,1.61,2.02,1.17,1.34-1.37,1.91-2.12,1.68-2.21,5.91-4.58,7.05-7.27.98-2.29-2.35.77-1.61-1.6l6.52-2.86c-1.32,7.48-5.14,14.46-3.26,22.04h-4.08c-.1,3.95,6.26,2.87,7.33,6.15.58,1.79-1.81.99-2.31,2.53-.65,1.99.54,5.09-2.59,6.41-4.84,2.04-5.43-1.02-7.86-1.77s-8.41-1.33-11.25-1c-2.28.27-4.47,1.95-7,1.57.35,1.81,2.87,9.65,1.55,10.53-8.32-1.25-10.82,5.04-15.86,9.87l-1.22-2.45-4.08.82c10.38-12.49,20.38-25.29,31.03-37.56,1.21.17,2.33-1.63,3.27-3.27.21-.36-.05-1.33.82-1.63Z"/><path class="dd" d="M478.52,512.82c-.46,2.47,1.25,1.57,2.82,1.63,32.35,1.27,69.08-2.91,100.57-.06,1.64.15,1.73.5,2.76.88q-.92.53,0,0c3.38,1.24,3.76,2.31,3.31,6.15s-2.77,4.13-4.13,6.1c-.91-1.61-1.95-4.07-3.33-5.25-2.82-2.42-7.3-1.33-7.75-5.42-24.73-.61-49.64.97-74.35.11-1.46-.05-2.6-.87-2.76-.88l.65-.29c-4.32.17-8.62,0-12.9-.52-1.84-.05-3.98.22-5.72,0-2.81-.77-1.61-3.22.82-2.45Z"/><path class="bk" d="M130.65,700.63c1.67-1.57,5.34,1.78,5.53,2.96.14.85-.93,2.43-.64,2.73.12.12,1.68-.17,3.2,1.34,1.69,1.69.78,3.47,1.33,4.36.41.66,1.83.94,2.59,2.31s1.01,3.89,1.25,4.11c.33.32,1.52-.06,2.02.37.75.63,2.05,5.07,2.62,5.95,1,1.55,3.97,2.42,5.05,4.02.74,1.1.08,2.1.71,3.29,1.68,3.16,3.99,3.11,5.5,4.77.61.66-.56,2.93,2.69,2.17-1.74,3.89.24,1.62,2.1,3.18.95.8.95,2.4,1.7,3.26,2.94,3.34,6.96,6.68,10.08,9.89,3.24.59,4.6,1.68,4.08,3.27,1.62,1.52,5.13,5.87,7.35,8.17,1.63,1.68,4.32,4.26,4.89,6.53-1.89-.77-2.96-3.1-4.52-4.18-.9-.62-1.14.13-1.19.1-19.84-14.34-43.56-47.39-56.34-68.59Z"/><path class="cj" d="M390.33,406.66c-.12-4.24-5.31-3.31-1.66-7.82.64-.79,2.28-.89,2.49-1.73s.2-4.31-.19-4.99c-.52-.92-10.65-6.3-12.52-8.32-1.02-1.11-.79-1.36-1.19-2.45,6.36-3.05,6.66-3.39,8.98-9.8-2.27-.86-1.59-2.78.82-2.45,7.81,13.07,8.67,23.24,3.27,37.56Z"/><path class="v" d="M741.46,469.54c-2.45-.63-3.58-2.72-5.3-4.12-1.96-1.59-3.72.41-2.86-4.86.59-.67,5.27-.4,5.01-.4-15.01.14-30.02,0-45.02-.41-.85-1.35-3.1-.82-4.48-.83-12.92-.14-28.66-1-41.25.01.85-1.35,3.1-.82,4.48-.83,28.56-.3,57.14.21,85.7.07,7.24,2.09,7.29,5.65,3.73,11.38Z"/><path class="de" d="M770.86,655.72c5.03.35-.03,4.15.82,4.9,15.39,1.08,31.36-1.86,46.54,1.64-11.41,3.14-25.17,1.32-37.19,1.6-3.41.08-14.92,3.43-14.3-2.79.16-1.55,3.05-3.87,4.12-5.34Z"/><path class="dc" d="M237.63,674.5c3.09-2.46,9.57-2.56,12.66,0,1.35-2.68,11.48-2.56,13.07,0,1.28-1.21,1.96-.4,2.04,2.45.27.03.55,0,.82,0-.71,1.38-2.79.69-4.08.82-.85-1.35-3.1-.82-4.48-.83-20.69-.22-41.39.19-62.08.02-5.84-3.17,6.14-2.51,9.02-2.49,10.89.05,21.85.06,33.04.04Z"/><path class="bu" d="M855.78,489.14c2.37,2.58.88-2.85,3.25.41-4.92,4.94,2.28,6.26,5.55,8.36,1.17.75,1.77,2.5,2.39,2.67,1.26.34,10.43.27,12.13.06,1.56-.2.77-1.55,2.34-1.76,1.27-.17,4.41-.17,5.62.08.36.08,1.33,2.83,3.83,1.61.03.27-.02.55,0,.82l-41.1.03c-4.86-1.18,4.54-10.85,5.98-12.28Z"/><path class="u" d="M731.66,497.3c2.41.17,4.53,1.52,6.89,1.71,3.29.25,9.34-.08,13.12-.08,5.8,0,11.78-.83,17.1-.84.79,0,6.44.98,4.52,2.48-.67.52-4.73-1.03-4.89.81h6.53v.82c-.04-.07-.54.04-.82,0-12.82-1.63-28.87,1.22-42.05,0-4.33-1.48-1.33-3.32-.41-4.9Z"/><path class="ay" d="M225.38,255.59l1.63,1.22c-1.55.49-2.09,3.31-2.45,3.68-8.47,8.68-19.98,19.16-29.05,27.71-1.38,1.3-1.26,4.89-3.61.87,10.86-12.63,20.83-22.62,33.48-33.48Z"/><path class="av" d="M275.19,404.21c3.33.36,4.27,2.15,6.9,2.49,3.41.44,6.15-.95,9.02-.92,3.36.03,7.31,1.66,11.02.89.7,2.73-3.25,1.42-5.23,1.69-.66.09-1.15.74-1.3.75-4.25.39-8.53-.82-11.84-.82h-12.25c-.3,0-1.35-.8-2.42-.85-4.33-.2-9.54.9-13.5-.79,2.03-.02,4.09.09,6.13,0,.99-.04,3.04.62,2.85-.81l-13.88-.02c.14-1.11,1.11-1.43,2.08-1.59,4.17-.71,17.95-.52,22.42-.03Z"/><path class="cg" d="M222.93,402.58c1.73-2.01,4.94-.88,4.9,1.63,5.4,1.17,10.67.83,16.33.82l-6.53,1.62c-3.43.86-8.34-.82-11.02-.82h-24.5c-2.21,0-6.32-.75-9.39-.82.01-.9.57-1.64.82-2.45,9.27.83,20.37-1.12,29.4,0Z"/><path class="bg" d="M471.17,180.47c-1.9,0-3.82-.01-5.72,0l.83,1.62h-19.6c-4.85-.25-9.83.1-14.7,0-1.63-.03-3.27,0-4.9,0-2.96.69-6.02.72-8.98,0-2.99-.03-5.99.03-8.98,0,.37-1.22,4.22-1.53,5.31-1.61,9.43-.72,19.56-.32,28.98-.83.94-.69,2.3-.96,4.08-.82,3.56-.29,8.21-.15,11.83,0,3.42.15,8.48.84,11.85,1.62Z"/><path class="cm" d="M365.83,716.96c1.02,5.03.62,5.06,5.72,6.53-5.01,3.56-11.49,9.65-16.72,12.28-.97.49-1.85,1.04-2.06-.46-.18-1.28,9.49-14.43,11.09-16.7.62-.87,1.75-1.33,1.98-1.66Z"/><path class="dl" d="M500.57,485.87c-7.37,8.96-14.42,18.07-22.05,26.95-.73.85-1.06,1.19-.82,2.45-7.5-.96-.41-3.73.57-5.14,2.69-3.86,4.85-7.91,8.41-12.01,1-1.16,4.53-3.99,5.71-5.36.78-.91,1.36-3.94,3.28-5.26-.09-2.8,3.13-3.75,4.9-1.63Z"/><path class="cb" d="M689.2,697.37c-.11.01-.72.71-1.96.86-3.91.48-9-.22-13.16-.05-1,.04-3.03-.62-2.85.82h15.52c.11,1.91.28,1.44-1.21,1.63-3.93.5-9.31-.06-13.49,0s-11.19-.68-14.93.17c-3.24.73-5.3,5.96-8.75,4.73,1.87-2.06,4.47-6.86,6.96-7.33,11.3-.9,22.56-.56,33.87-.84Z"/><path class="cd" d="M495.67,487.5c-1.51-1.37-.28-3.54-1.57-5.37-1.89-2.67-7.06-3.36-7.36-3.66s.19-2.75-.44-4.06c-.29-.61-6.04-3.31-1.52-4.75,7.26-2.31,7.48,9.88,11.09,11.53,1.14.53,3.21.32,3.73.76.58.49.05,2.95,1.8,3.1-.25.3-.58.53-.82.82-1.51.4-3.63.76-4.9,1.63Z"/><path class="bc" d="M459.74,799.44l6.53,1.62c-3.3-1.46-5.02,1.56-6.06,1.7-3.49.47-7.59-.09-11.08-.06-8.15.07-16.34,0-24.5,0h-6.53c-2.06-.68-3.15-1.5-3.27-2.45,11.84-.17,23.71.21,35.56.03,2.89-.04,6.01-.79,9.36-.85Z"/><path class="dr" d="M538.95,670.42c.11,0,.77-.71,1.96-.86,5.26-.68,12.43.28,18.06.05,1-.04,3.03.62,2.85-.82h-17.96l1.21-1.63c8.8,1.1,18.44-1.7,27-.86,4.44.44.47,2.69,3.64,2.49-4.37.79-9.63,1.46-14.26,1.67-7.46.34-15.03-.32-22.49-.03Z"/><path class="am" d="M242.53,480.15c-3.33,1.18-4.19,4.39-5.99,6.26-3.41,3.53-7.89,7.2-11.65,10.41-1.89,1.61-3.48,6.03-5.22,2.11,6.4-7.05,13.51-14.71,20.41-21.23.88.39,1.94,2.17,2.45,2.45Z"/><path class="bi" d="M396.04,798.62c6.1.12,12.65,1.22,18.78,1.63.19.01,1.33.79,2.76.88,10,.59,20.65-.57,30.71-.05.19,1.42-1.85.77-2.85.81-7.59.31-15.28-.09-22.88-.01-1.38.01-3.63-.52-4.48.83h-11.43c-6.56-2.3-13.61-1.99-20.41-3.27,1.58-1.68,4.52.14,7,.1,1.48-.03,2.65-.92,2.8-.91Z"/><path class="ca" d="M547.93,574.88c-3.31,4.32-6.46,8.76-9.8,13.07-.69,0-3.25,1.78-3.27,4.08-2.14,2.75-4.41,5.44-6.53,8.17-5.35-3.39.1-4.04,2.44-6.91,3.26-3.99,10.4-15.56,13.95-17.97,1.09-.74,1.93-1.45,3.2-.43Z"/><path class="cw" d="M267.02,449.12c.96,1.12-.3,3.27-.91,4.21-2.29,3.52-14.47,15.43-18.28,18.68-1,.85-1.34,2.07-2.86.79,5.96-8.94,14.87-15.88,22.05-23.68Z"/><path class="y" d="M213.13,705.53c5.2,2.98,15.74,15.46,21.23,20.41v2.44c-1.55.92-9.77-8.11-11.43-9.79-1.75-1.77-11.92-11.85-12.24-12.67-.14-.36.02-.83,0-1.21,1,1.34,2.33.75,2.44.82Z"/><path class="bq" d="M646.74,253.96c.18.63.18,1.17,0,1.63-.39,1.53-.77,1.2-1.63,0-2.58.72-4.5,4.29-7.74,1.62-3.79-3.12-1-7.32,2.03-9.78,2.61,2.04,4.89,4.37,7.35,6.53Z"/><path class="cz" d="M874.56,599.37l-3.26-1.22c2.91-1.69.74-4.01.99-5.63.45-2.86,4.63-1.24,6.11-2.36,2.2-1.66,1.18-7.83,6.78-3.86-2.47,4.2-7.15,9.54-10.62,13.07Z"/><path class="ba" d="M767.59,587.94c-2.82,5-7.14,9.33-10.62,13.88l-2.44.82c.99-3.61-1.87-6.58,1.22-9.82,1.74-1.82,4.56,1.74,6.12-2.72l5.72-2.15Z"/><path class="ar" d="M334.8,644.29c-7.55,7.1-11.51,10.14-20.41,15.52-1.03-1.13-2.43-.35-.75-1.98,3.47-3.37,9.92-6.39,13.79-9.92,2.24-2.04-.51-1.26,4.39-3.59,1.13-.54-.55-3.11,2.98-.03Z"/><path class="cp" d="M409.11,556.1c9.56.28,19.36.55,29.4.82.99.18,2.67-.49,3.27.82-12.22,1-24.53,1.05-36.75,0-4.38-1.55-4.57-3.95-6.53-7.35,4.14.38,8.52,1.67,10.62,5.72Z"/><path class="df" d="M880.28,461.37c5.86,4.99-4.23,4.14-4.93,4.53-.17.1-2.72,2.6-2.81,2.77-.41.77.59,2.22.26,3.49-1.95,7.52-9.86,10.98-15.38,15.33l15.91-21.25c1.97-2.1,4.39-3.63,6.96-4.88Z"/><path class="bc" d="M495.67,793.72l.83,2.06-9.82,1.22.83,1.62c-3.98-.19-9.81-1.87-12.25,2.46-1.56-.04-3.45.21-4.9,0-2.8-.4-4.06-1.42-8.17-1.63l33.48-5.72Z"/><path class="be" d="M655.72,262.12c1.76,1.88,3.54,3.44,4.9,5.72,1.1,2.38-.1,2.77-1.63.82-2.24,1.93-3.01,4.99-7.35,2.86-5.22-2.56.9-8.12,4.09-9.39Z"/><path class="ap" d="M614.07,348.68c-5.15,6.28-10.37,12.52-15.52,18.78-.63.18-1.17.18-1.63,0,.07-.52-.13-1.26,0-1.63-2.22-1.82.68-6.09,3.27-4.9,3.38-3.33,3.68-1.77,6.53-7.35-.73-1.23-.19-2.32,1.63-3.27,2.63-1.31,2.83-3.62,5.72-1.63Z"/><path class="cu" d="M255.59,309.49c-5.58,5.23-11.22,11.43-16.33,17.15-2.41-5.42,1.66-4.51,3.06-5.92.55-.55.45-2.56,1.47-3.84.96-1.21,3.2-1.81,4.39-2.96,1.91-1.85,4.26-6.93,7.42-4.42Z"/><path class="ae" d="M650.82,659.8c4.24,3.41-3.48,5.8,6.54,4.91l-.83,1.62c8.43-.08,16.89.13,25.32,0-.85,1.35-3.1.81-4.48.83-6.81.08-13.65-.21-20.46-.05-2.79.07-9.86,2.71-9.42-1.98.3-3.15,2.04-3.51,3.32-5.33Z"/><path class="ca" d="M528.33,601.01c-4.04,5.19-8.13,10.39-12.25,15.52-.23-1.73-4.01,1.38-3.25-1.21s6.81-6.31,7.69-7.75c.33-.54-.43-1.74.36-2.9.7-1.02,5.93-6.02,7.45-3.65Z"/><path class="d" d="M422.18,239.26c6.9-.33,14.43-1.42,21.67-.85l28.13,2.49c.04,1.48-3.03.77-4.08.81-.81.03-1.64.01-2.45,0l-5.72-.82c-.82,0-1.63,0-2.45,0l-7.35-.82c-8.78-.06-18.24-.43-26.95,0l-.82-.82Z"/><path class="bh" d="M646.74,255.59c.18-.43.73-.43,1.63,0,1.87,1.72,3.61,2.75,5.72,4.9-2.07,4.8-10.04,4.88-10.5-.55-.16-1.83,3.25-2.3,1.52-4.35.4-.11,1.11.03,1.63,0Z"/><path class="ca" d="M507.92,627.14c-5.71,6.33-9.86,7.69-16.33,12.25-3.27-1.18-.69-3.21,1.12-4.59,2.01-1.53,5.82-3.1,8.01-4.48,2.04-1.28,4.34-5.44,7.2-3.19Z"/><path class="do" d="M691.65,752.08c-6.25,6.85-12.78,13.31-19.6,19.6-2.19-3.16,3.09-5.25,4.68-6.81.8-.78,1.28-1.31,2.18-2.2,2.99-2.96,6.91-8.32,10.17-10.5,1.08-.72.7-1.57,2.57-.09Z"/><path class="aq" d="M657.35,294.79c-.04-1.89-1.79-4.52.41-5.71.68-.37-.15,3.06,1.65.82l-.42-4.09,2.44.82c2.49-4.74-.76-4.53-1.28-6.45-.89-3.26-.99-8.07-1.17-11.52.24-.21,1.32-.15,1.63-.82,6.6,11.06,2.61,17.51-3.27,26.95Z"/><path class="dk" d="M387.06,369.1c-.54.72-.53,1.66-.82,2.45-1.52.33-3.1,2.44-4.5,2.46-4.84.08-2.44-10.93,1.66-7.37l.39-2.44c1.65,1.94,2.05,2.87,3.27,4.9Z"/><path class="bb" d="M685.93,538.13c.24-.48.52-.47.82,0-4.27,5.56-8.72,10.86-13.07,16.33-2.59-4.44,2.35-5.22,3.99-7.01,2.46-2.68,2.73-9.53,8.25-9.32Z"/><path class="bx" d="M512,472.8c-3.43,4.17-7.22,8.12-10.62,12.25-2.59-4.94,1.81-8.06,5.72-10.62.91-2.78,3.29-4.91,4.9-1.63Z"/><path class="an" d="M585.49,239.26c-4.94,5.93-9.68,12.08-14.7,17.96-.71-1.57-.49-1.96.25-3.35,1.15-2.15,6.77-8.54,8.76-10.92,1.29-1.53,3.7-5.86,5.7-3.7Z"/><path class="x" d="M689.2,697.37c13.24-1.43,26.93-1.06,40.43-1.63,1.27-.05,2.39-.83,3.66-.82.22,2.04-1.6,3.43-2.44,4.9-4.09-2.92-7.73-.64-12.24-.82-2.83-2.14,6.18-1.6,6.95-1.63.99-.04,3.04.62,2.85-.81-13.06.24-26.14.49-39.19.81Z"/><path class="ar" d="M343.78,632.04c.45.15.4.43,0,.82,1.36-.17,1.35.54.82,1.63-2.87,3.32-5.86,5.97-8.98,8.98-1.93-4.63,4.7-9.52,8.17-11.43Z"/><path class="bb" d="M671.23,557.73c-3.46,4.37-7.24,8.79-10.62,13.07-3.13.76-1.04-2.96,0-4.08.15-.16,1.66-.16,2.49-1.15,2.28-2.74,1.89-7.82,8.13-7.83Z"/><path class="ac" d="M441.77,557.73c3.6,0,8.36-.7,11.43.82-14.21-.07-31.69,1.31-45.42.06-1.65-.15-1.75-.52-2.76-.88,12.24.02,24.51-.03,36.75,0Z"/><path class="dh" d="M848.43,485.05c-1.52,1.96-3.66,4.11-4.9,5.72-3.07,1.8-3.62-2.93-3.27-4.9,3.78,2.41,6.77-6.69,8.17-.82Z"/><path class="cd" d="M525.88,450.76c.46.76.17,2.64,1.63,3.27-1.83,2.22-3.91,4.34-5.72,6.53-1.32-1.69,1.05-2.59.86-4.46-.04-.43-2.62-.03-1.53-3.13.74-2.11,2.82-2.42,4.75-2.21Z"/><path class="ad" d="M352.77,499.75c-5.43.19-11.26-2.41-6.53-8.17,2.41,2.69,4.42,5.24,6.53,8.17Z"/><path class="as" d="M587.13,381.35c-.36-1.68-1.21.71-2.48.47-.58-.11-2.35-1.26-2.38-1.69,2.49-4.55,7.74-10.73,4.05-1.23l4.89-2.45c-1.35,1.64-2.74,3.27-4.08,4.9Z"/><path class="ak" d="M588.76,662.25c-3.71,3.31-5.09,4.15-9.8,5.72-.51-.95-1.53-2.47-.26-3.28,1.83-1.16,7.89-3.64,10.06-2.44Z"/><path class="ao" d="M289.89,424.63c1.27,3.37-3.24,6.76-5.42,8.49-.61.49-.58,3.44-2.74-.33,2.66-2.83,5.52-5.4,8.17-8.17Z"/><path class="ag" d="M294.79,767.59l-.81,1.63c-1.67.24-2.78-1.26-4.33-1.81-1-.36-2.27.25-2.99-.22-.91-.6-3.72-3.97-.86-4.5,2.91,1.63,6.03,3.39,8.98,4.9Z"/><path class="ca" d="M514.45,618.16c-1.96,2.42-3.57,4.8-5.72,7.35-5-2.1-1.77-1.79-.83-3.05,1.77-2.38,2.74-5.95,6.55-4.3Z"/><path class="ar" d="M352.77,623.87c-1.59,2.37-3.16,4.32-4.9,6.53-.5.48-1.04.48-1.63,0-1.48,1.11-2.3,1.11-2.45,0,.3-1.83,1.04-1.89,2.45-3.27.78-.76,2.26-2.76,2.42-2.85.61-.34,1.51.43,1.96.35.89-.15-.05-2.61,2.15-.76Z"/><path class="ce" d="M548.75,427.89c-2.7,3.27-5.47,6.53-8.17,9.8-.99.55-1.37.17-.82-.82,1.84-.92.68-3.92.84-4.04.29-.21,1.61.27,2.22-.23.3-.25,3.83-4.27,5.1-5.52,1.15-1.08,1.57-.63.82.82Z"/><path class="cd" d="M513.63,470.35c-.49.59-.9,1.56-1.63,2.45-2.16-.42-3.29.58-4.9,1.63-.03-3.63,1.87-5.97,4.5-8.16l2.04,4.08Z"/><path class="da" d="M447.49,178.83c-.78.06-2.19.71-4.08.82-6.52.07-13.08-.1-19.6,0-.71-.23-.7-.5,0-.82,8.1-.17,15.54-1.01,23.68,0Z"/><path class="cu" d="M262.94,302.95c-1.93,1.66-4.83,4.15-6.53,5.72-2.16-3.66,3.26-7.61,6.53-5.72Z"/><path class="dp" d="M564.26,614.89c-.71,3.24,5.04,4.95,4.9,5.3-.81,1.9-3.78,2.43-5.67,2.01l-.85-4.86c.51-.66.96-1.58,1.63-2.45Z"/><path class="cd" d="M537.31,441.77c-.04-1.96-3.7-.79-3.23-2.82.4-1.7,2.29-2.83,3.65-3.71l.41,2.45c.21.34,1.24-.75,1.63-.82.45-.08.94.29.82.82-1.11,1.35-2.14,2.72-3.27,4.08Z"/><path class="cl" d="M345.42,191.9c2.62-.33,1.81.85.2,1.42-2.96,1.05-8.91,3.45-11.63,1.85,3.85-1.23,7.56-2.17,11.43-3.27Z"/><path class="at" d="M276.82,350.32c-.14,0-1.3.83-2.76.88-7.23.22-14.51-.29-21.74-.05,2.29,5.43,11.61,1.95,13.94,3.61.47.33,2.67,7.86,2.29,8.93-.33.93-1.75,1.03-2.3,2.01-3.72,6.6-2.76,11.16-9.92,15.18-1.43.8-3.42.54-4.81,1.72-1.11.94-3.57,8.44-7.01,11.77-1.53,1.49-3.58,1.1-5.13,3.86-2.36,4.21,1.92,2.35,2.32,5.99h-13.88c-1.75-.37-3.22-1.42-4.9-1.63-2.48-5.1,2.74-8.98,3.71-12.21,2.16-7.17,4.12-15.76,9.01-22.02,1.52-1.95,3.9-2.02,4.41-4.57,1.98-9.9-4.13-6.26-7.33-12.64,5.85-.2,11.77.23,17.62.02,1.05-.04,1.87-.85,1.98-.85,8.14-.26,16.35.19,24.5,0Z"/><path class="cx" d="M471.17,571.61c4.22,1.6-1.47,7.41-4.08,4.9.43-2,3.31-3.77,4.08-4.9Z"/><path class="as" d="M616.52,342.15c-1.92.3-3.34-2.36-3.26-4.08h4.89c.29.26-1.27,3.33-1.63,4.08,1.46-.23,2.3-3.39,4.08-1.63-1.94,2.36-3.74,4.94-5.72,7.35-1.22-2.33.64-3.63,1.63-5.72Z"/><path class="cz" d="M890.9,578.96c-1.53,1.94-2.75,4.43-4.9,5.72.06-.15.85-2.29.78-2.41-.1-.19-3.79.26.08-2.86l4.03-.44Z"/><path class="cx" d="M467.09,577.33c.22.8,1.72,1.46,1.27,2.44-.49,1.06-2.79,4.16-4.1,3.26l-.44-.79c.75-1.02.7-4.31,3.27-4.9Z"/><path class="cf" d="M276.01,675.32c-.27,0-.55.02-.82,0-11.3-.64.8-7.05.82,0Z"/><path class="au" d="M640.2,518.53c1.43-1.8,2.56-3.82,4.08-5.72.96,2.52-.72,7.59-4.08,5.72Z"/><path class="cd" d="M552.01,423.81c-1.1,1.34-2.15,2.73-3.27,4.08l-.82-.82c.67-.66,1.44-5.31,4.08-3.27Z"/><path class="c" d="M278.46,218.85c4.52-.71-2.93,4.23-4.08,2.45,1.32-.74,2.48-1.59,4.08-2.45Z"/><path class="di" d="M305.4,551.2c-.46-1.8-1.82-3.6-1.63-5.72.06,0,.27-1.3.81-.81.25.23,2.27,5.84.83,6.53Z"/><path class="bg" d="M423.81,178.83v.82c-3.25.05-6.55-.12-9.8,0,2.46-1.55,6.68-.75,9.8-.82Z"/><path class="as" d="M538.13,587.94c-1.07,1.38-2.2,2.71-3.27,4.08-2.09-2.76,1.4-2.82,2.86-4.89l.4.8Z"/><path class="t" d="M347.87,630.41c-1.06,1.36-2.14,2.78-3.27,4.08-.79-.26-.75-.94-.82-1.63.29-1.62.86-2.13,2.45-2.45.3-.04.73-.64,1.24-.59l.4.59Z"/><path class="as" d="M547.11,334.8s.62.31.38.79c-.51.97-2.37,3.71-3.23,3.29l-.42-.81c1.02-1.17,1.64-2.65,3.27-3.27Z"/><path class="bt" d="M457.29,240.89c-2.31-.03-5.73.67-7.35-.82,2.3.02,5.74-.66,7.35.82Z"/><path class="bg" d="M410.74,179.65c-1.42.07-4.38.65-6.53.82,1.41-1.63,4.49-.56,6.53-.82Z"/><path class="cd" d="M534.05,445.86c-.89,1.08-1.91,1.79-2.45,2.45-1.47-1.59.85-3.92,2.45-2.45Z"/><path class="bt" d="M465.45,241.71c-1.79-.02-4.6.61-5.72-.82,1.79.02,4.6-.6,5.72.82Z"/><path class="cz" d="M871.3,603.46l-.8-.4c.8-1.27,2.29-1.95,3.25-2.86.1,2.04-1.41,2.32-2.45,3.27Z"/><path class="cz" d="M862.32,614.89l-.8-.4c.79-1.27,2.29-1.95,3.25-2.86.27,2.05-1.83,2.47-2.45,3.27Z"/><path class="cv" d="M560.18,771.67c3.16-.18,1.32,1.33-1.14,1.47l-.5-.66c.52-.23,1.06-.56,1.63-.82Z"/><path class="dm" d="M484.24,182.1c.81-.04,1.64.03,2.45,0-.97,1.48-3.4.68-4.9.81v-.8c.81-.05,1.63.03,2.45,0Z"/><path class="cn" d="M699.81,597.74c.51-.65.95-1.58,1.63-2.45,1.05,2.14.56,4.01-1.63,2.45Z"/><path class="as" d="M598.56,367.46c-.59.71-1.27,1.19-1.63,1.63-.96-.89-.03-1.39,0-1.63l1.23-.79.4.79Z"/><path class="as" d="M648.37,255.59c-.8.95-1.55,0-1.63,0l-.79-1.23.79-.4c.67.59,1.11,1.15,1.63,1.63Z"/><path class="dm" d="M477.7,243.34c-1.92-.12-3.29-.72-4.08-.82,1.31.05,3.39-.51,4.08.82Z"/><path class="bi" d="M394.41,798.62c-1.31-.05-3.39.51-4.08-.82,1.9.28,2.17.2,4.08.82Z"/><path class="cz" d="M868.85,606.72l-.8-.4c.57-.98,1.7-1.39,2.43-2.05.28,1.61-1.2,1.87-1.63,2.45Z"/><path class="cz" d="M867.22,609.17c-.56.62-1.08,1.07-1.63,1.63-1.71-.3.67-1.75,1.23-2.43l.4.8Z"/><path class="au" d="M686.75,538.13h-.82c.42-1.34,1.56-1.71,2.45-2.45.28,1.63-1.18,1.86-1.63,2.45Z"/><path class="af" d="M500.57,859.05c-.53.04-1.1.02-1.63,0-.81-.02-1.64.03-2.44,0v-.8c1.26.07,3.35-.56,4.08.81Z"/><path class="o" d="M483.42,515.27c31.51.93,63.2-.7,94.72,0,.19,1.42-1.85.77-2.85.81-26.29,1.08-53.28-.8-79.63,0-2.16-.11-4.37.03-6.53,0-1.79-.02-4.6.61-5.72-.82Z"/><path class="cd" d="M469.48,552.07c.37.26.43,2.61.89,3.39.64,1.1,2.22.99,2.44,2.26-4.11,1.07-4.38-1.78-7.35-3.67-.46-1.76,3-2.69,4.02-1.97Z"/><path class="cd" d="M542.47,371.28c.99,1.42,3.93,2.05.61,4.81-5.57,4.64-3.98-4.04-1.68-6.98,1.43-.26.5,1.37,1.06,2.17Z"/><path class="cd" d="M483.41,483.42c-4.78-1.14-7.28.18-5.71-5.72.82-.91,6.96,3.3,5.71,5.72Z"/><path class="cd" d="M528.32,380.53c-.62,1.56,3.68,5.75,1.22,6.52-1.12.35-3.14-3.34-4.4-3.75-.5-2.28,1.14-3.1,3.18-2.77Z"/><path class="cd" d="M525.88,393.6c.75.75.71,4.26-2.76,3.16-3.75-1.18,1.3-4.62,2.76-3.16Z"/><path class="cf" d="M249.06,618.97c.09.39.43.76.82.82l-7.35,2.04c6.31,2.27,6.88,8.83,11.29,13.24.88,2.93-1.23,4.16-1.34,5.68-.09,1.22,2.38,3.9,2.07,6.31-.2,1.56-2.23,2.72-2.22,4.17,0,.38,2.58,6.45,2.88,6.93.17.27,4.2,4.32,4.47,4.47,1.79,1.02,6.6.67,7.23,2.59.39,1.21-.01,3.09.28,4.62.21,1.1,1.56,2.34,1.36,3.34-.34,1.76-3.67,1.49-3.17,3.78-.5-.05-1.5.12-1.63,0-.1-.09,1.07-2.44-.41-2.44h-13.07c-3.95,0-8.39,0-12.66,0-.68-1.94-3.68-1.59-4.51-3.25-.99-1.97.26-4.78-.8-6.55-1.89-3.16-10.58-5.01-10.9-11.2-.06-1.12,3.73-2.66,3.81-7.39.03-1.79-2.04-1.34-2.32-2.4-.35-1.31-.12-11.61.45-12.52s2.86-.36,2.03-3.24c-2.97,1.27-5.11-3.03-6.24-3.2-.92-.14-1.7,1.2-2.47,1.33-5.06.86-14.67-.9-19.7-2.78-1-.38-.84-1.71-1.57-1.88-1.72-.39-7.48,2.38-6.78-.82h11.43v-.82h-98.81l2.85-.82c48.24-1.16,96.75,1.55,144.95,0Z"/><path class="c" d="M176.38,755.34c2.99.95,6.96-1.77,4.08,3.27-1.14-1.08-2.1-1.23-4.08-3.27Z"/><path class="cf" d="M227.82,669.61c1.15.54-3.69,2.15-4.9,1.62.63-2.07,3.11-1.67,4.9-1.62Z"/><path class="ac" d="M438.51,556.91h-29.8c-1.12-.16.43-.78.41-.82,9.75.41,19.9-.92,29.4.82Z"/><path class="q" d="M970.92,459.74c-.41.06-1.69,1.33-2.76.88-21.67-.13-43.36-.03-65.02-.06-4.22,0-8.5.4-12.67.41-.43,0-2.95-.31-1.62-1.23h82.06Z"/><path class="cz" d="M894.86,566.85c.12.05,1.78,1.76,1.75,1.89-.07.35-3.77,5.6-4.07,5.78-1.48.93-2.5-1.37-4.09-1.29-.69-.99,4.93-7.01,6.41-6.38Z"/><path class="cz" d="M881.92,556.91c-.73-.53-1.22-4.62,1.21-4.07,2.55.58.61,5.37-1.21,4.07Z"/><path class="cz" d="M865.58,598.55c-.97-.22-2.09.95-2.81.82-2.86-.52.08-6.26,2.81-.82Z"/><path class="cz" d="M881.91,563.44h-3.26c.02-3.25,3.26-3.21,3.26,0Z"/><path class="bl" d="M317.65,410.75l-.4,2.44c-.86-.74-1.49-1.24-1.22-2.44h1.62Z"/><path class="cs" d="M177.2,336.43c-4.17.64-9.81-2.28-3.79-4.83l3.79,4.83Z"/><path class="cs" d="M197.61,337.25v2.44c-1.51.19-2.4.05-3.26-1.23v-1.21s3.26,0,3.26,0Z"/><path class="cs" d="M218.02,320.92c.25,1.13-.44,2.17-1.62,2.45v-2.45s1.62,0,1.62,0Z"/><path class="cs" d="M168.21,326.63h-1.62c-.26-1.2.36-1.7,1.22-2.44l.4,2.44Z"/><path class="cs" d="M233.54,252.33c-2.46,3.43,9.12,9.32,6.46,12.98-.16.23-2.56,1.09-3.23.55-.98-.81-.46-2.53-1.02-3.5-.28-.48-1.58-.77-2.07-1.56-1.76-2.83-5.65-7.69-.14-8.47Z"/><path class="cn" d="M730.03,574.06v-3.26c3.25.02,3.21,3.26,0,3.26Z"/><path class="as" d="M600.19,360.93c-1.42,1.4-2.57,2.95-3.27,4.9-1.57.84-1.65,1.86-2.54-.34-1.68-4.14,2.3-7.78,5.81-4.56Z"/><path class="as" d="M608.36,350.32c-.02,1.39-1.1,2.23-1.63,3.27l-1.63-2.44c.97-.26,2.43-.41,3.26-.83Z"/><path class="aw" d="M693.28,459.74c15.37,0,30.76,0,46.13,0,1.33,1.16-.93.8-1.65.82-1.49.05-2.99-.06-4.48,0-1.63.07-3.17.65-4.48.65s-2.62-.69-4.06-.69c-12.4,0-24.8.07-37.19.04-10.33-.03-20.7.07-31.03,0-.27,0-.54,0-.82,0-.71-.23-.7-.5,0-.82,12.5-.1,25.06,0,37.56,0Z"/><path class="by" d="M346.23,630.41l-2.45,2.45c-.03-.27,0-.55,0-.82,0-.52-.08-1.15,0-1.63.79-.08,1.68.12,2.45,0Z"/><path class="ai" d="M655.72,459.74v.82c-.82,0-1.63.01-2.45,0-1.65-.03-5.69.75-6.53-.81,2.98-.03,5.99.02,8.98,0Z"/><path class="bt" d="M427.07,182.1c-2.07,1.39-7.07,1.36-8.98,0,2.99.03,6,0,8.98,0Z"/><path class="bd" d="M855.78,458.93c-.72,1.85-4.91.35-6.52.8.72-1.85,4.91-.35,6.52-.8Z"/><path class="as" d="M550.38,355.21v-4.07c3.35-.07,3.35,4.15,0,4.07Z"/><path class="o" d="M584.68,515.27c-.25,1.47-2.66.64-4.08.81v-.8s4.08,0,4.08,0Z"/><rect class="b" x="218.03" y="619.79" width="13.07" height=".82"/></svg>